<svg width="848" height="170" xmlns="http://www.w3.org/2000/svg" version="1.1"><g transform="translate(0,10)"><g><path class="link" d="M215.75,75C318.625,75 318.625,75 421.5,75" style="stroke-width: 120px; fill: none; stroke: rgb(148, 191, 105); stroke-opacity: 0.4;"><title>6</title></path><path class="link" d="M5,100C107.875,100 107.875,95 210.75,95" style="stroke-width: 80px; fill: none; stroke: rgb(191, 105, 105); stroke-opacity: 0.4;"><title>4</title></path><path class="link" d="M5,30C107.875,30 107.875,35 210.75,35" style="stroke-width: 40px; fill: none; stroke: rgb(191, 169, 105); stroke-opacity: 0.4;"><title>2</title></path><path class="link" d="M426.5,35C529.375,35 529.375,20 632.25,20" style="stroke-width: 40px; fill: none; stroke: rgb(105, 191, 126); stroke-opacity: 0.4;"><title>2</title></path><path class="link" d="M426.5,75C529.375,75 529.375,70 632.25,70" style="stroke-width: 40px; fill: none; stroke: rgb(105, 191, 126); stroke-opacity: 0.4;"><title>2</title></path><path class="link" d="M426.5,125C529.375,125 529.375,140 632.25,140" style="stroke-width: 20px; fill: none; stroke: rgb(105, 191, 126); stroke-opacity: 0.4;"><title>1</title></path><path class="link" d="M426.5,105C529.375,105 529.375,110 632.25,110" style="stroke-width: 20px; fill: none; stroke: rgb(105, 191, 126); stroke-opacity: 0.4;"><title>1</title></path><path class="link" d="M637.25,140C740.125,140 740.125,130 843,130" style="stroke-width: 20px; fill: none; stroke: rgb(105, 191, 191); stroke-opacity: 0.4;"><title>1</title></path><path class="link" d="M637.25,110C740.125,110 740.125,110 843,110" style="stroke-width: 20px; fill: none; stroke: rgb(105, 126, 191); stroke-opacity: 0.4;"><title>1</title></path><path class="link" d="M637.25,30C740.125,30 740.125,70 843,70" style="stroke-width: 20px; fill: none; stroke: rgb(148, 105, 191); stroke-opacity: 0.4;"><title>1</title></path><path class="link" d="M637.25,10C740.125,10 740.125,20 843,20" style="stroke-width: 20px; fill: none; stroke: rgb(148, 105, 191); stroke-opacity: 0.4;"><title>1</title></path><path class="link" d="M637.25,80C740.125,80 740.125,90 843,90" style="stroke-width: 20px; fill: none; stroke: rgb(191, 105, 169); stroke-opacity: 0.4;"><title>1</title></path><path class="link" d="M637.25,60C740.125,60 740.125,40 843,40" style="stroke-width: 20px; fill: none; stroke: rgb(191, 105, 169); stroke-opacity: 0.4;"><title>1</title></path></g><g><g class="node" transform="translate(0,60)"><rect height="80" width="5"><title>Hobart4</title></rect><text x="11" y="40" dy=".35em" text-anchor="start" style="font-size: 11px; font-family: Arial, Helvetica; pointer-events: none;">Hobart</text></g><g class="node" transform="translate(0,10)"><rect height="40" width="5"><title>Launceston2</title></rect><text x="11" y="20" dy=".35em" text-anchor="start" style="font-size: 11px; font-family: Arial, Helvetica; pointer-events: none;">Launceston</text></g><g class="node" transform="translate(843,10)"><rect height="40" width="5" style="fill: rgb(102, 102, 102);"><title>Adam Mostogl2</title></rect><text x="-6" y="20" dy=".35em" text-anchor="end" style="font-size: 11px; font-family: Arial, Helvetica; pointer-events: none;">Adam Mostogl</text></g><g class="node" transform="translate(843,60)"><rect height="80" width="5" style="fill: rgb(102, 102, 102);"><title>Peter Padd4</title></rect><text x="-6" y="40" dy=".35em" text-anchor="end" style="font-size: 11px; font-family: Arial, Helvetica; pointer-events: none;">Peter Padd</text></g><g class="node" transform="translate(421.5,15)"><rect height="120" width="5"><title>Strategy6</title></rect><text x="11" y="60" dy=".35em" text-anchor="start" style="font-size: 11px; font-family: Arial, Helvetica; pointer-events: none;">Strategy</text></g><g class="node" transform="translate(632.25,130)"><rect height="20" width="5"><title>Datasets1</title></rect><text x="-6" y="10" dy=".35em" text-anchor="end" style="font-size: 11px; font-family: Arial, Helvetica; pointer-events: none;">Datasets</text></g><g class="node" transform="translate(632.25,50)"><rect height="40" width="5"><title>presentations2</title></rect><text x="-6" y="20" dy=".35em" text-anchor="end" style="font-size: 11px; font-family: Arial, Helvetica; pointer-events: none;">presentations</text></g><g class="node" transform="translate(632.25,0)"><rect height="40" width="5"><title>product development2</title></rect><text x="-6" y="20" dy=".35em" text-anchor="end" style="font-size: 11px; font-family: Arial, Helvetica; pointer-events: none;">product development</text></g><g class="node" transform="translate(632.25,100)"><rect height="20" width="5"><title>Systems/APIs1</title></rect><text x="-6" y="10" dy=".35em" text-anchor="end" style="font-size: 11px; font-family: Arial, Helvetica; pointer-events: none;">Systems/APIs</text></g><g class="node" transform="translate(210.75,15)"><rect height="120" width="5"><title>Coach6</title></rect><text x="11" y="60" dy=".35em" text-anchor="start" style="font-size: 11px; font-family: Arial, Helvetica; pointer-events: none;">Coach</text></g></g></g></svg>
