<svg width="848" height="370" xmlns="http://www.w3.org/2000/svg" version="1.1"><g transform="translate(0,10)"><g><path class="link" d="M5,208.8461538461538C107.875,208.8461538461538 107.875,208.8461538461538 210.75,208.8461538461538" style="stroke-width: 192.3076923076923px; fill: none; stroke: rgb(191, 145, 105); stroke-opacity: 0.4;"><title>20</title></path><path class="link" d="M215.75,256.9230769230769C318.625,256.9230769230769 318.625,266.9230769230769 421.5,266.9230769230769" style="stroke-width: 96.15384615384615px; fill: none; stroke: rgb(191, 184, 105); stroke-opacity: 0.4;"><title>10</title></path><path class="link" d="M215.75,170.38461538461536C318.625,170.38461538461536 318.625,170.38461538461536 421.5,170.38461538461536" style="stroke-width: 76.92307692307692px; fill: none; stroke: rgb(191, 184, 105); stroke-opacity: 0.4;"><title>8</title></path><path class="link" d="M215.75,98.26923076923077C318.625,98.26923076923077 318.625,88.26923076923077 421.5,88.26923076923077" style="stroke-width: 67.3076923076923px; fill: none; stroke: rgb(191, 184, 105); stroke-opacity: 0.4;"><title>7</title></path><path class="link" d="M5,69.03846153846153C107.875,69.03846153846153 107.875,88.65384615384615 210.75,88.65384615384615" style="stroke-width: 48.07692307692307px; fill: none; stroke: rgb(191, 105, 105); stroke-opacity: 0.4;"><title>5</title></path><path class="link" d="M426.5,271.73076923076917C529.375,271.73076923076917 529.375,267.1153846153846 632.25,267.1153846153846" style="stroke-width: 28.846153846153847px; fill: none; stroke: rgb(118, 191, 105); stroke-opacity: 0.4;"><title>3</title></path><path class="link" d="M426.5,300.57692307692304C529.375,300.57692307692304 529.375,315.57692307692304 632.25,315.57692307692304" style="stroke-width: 28.846153846153847px; fill: none; stroke: rgb(118, 191, 105); stroke-opacity: 0.4;"><title>3</title></path><path class="link" d="M426.5,97.88461538461537C529.375,97.88461538461537 529.375,121.73076923076921 632.25,121.73076923076921" style="stroke-width: 28.846153846153847px; fill: none; stroke: rgb(105, 191, 171); stroke-opacity: 0.4;"><title>3</title></path><path class="link" d="M426.5,69.03846153846153C529.375,69.03846153846153 529.375,54.03846153846153 632.25,54.03846153846153" style="stroke-width: 28.846153846153847px; fill: none; stroke: rgb(105, 191, 171); stroke-opacity: 0.4;"><title>3</title></path><path class="link" d="M426.5,247.69230769230765C529.375,247.69230769230765 529.375,223.46153846153842 632.25,223.46153846153842" style="stroke-width: 19.23076923076923px; fill: none; stroke: rgb(118, 191, 105); stroke-opacity: 0.4;"><title>2</title></path><path class="link" d="M426.5,141.53846153846152C529.375,141.53846153846152 529.375,78.07692307692307 632.25,78.07692307692307" style="stroke-width: 19.23076923076923px; fill: none; stroke: rgb(105, 191, 131); stroke-opacity: 0.4;"><title>2</title></path><path class="link" d="M426.5,179.99999999999997C529.375,179.99999999999997 529.375,204.2307692307692 632.25,204.2307692307692" style="stroke-width: 19.23076923076923px; fill: none; stroke: rgb(105, 191, 131); stroke-opacity: 0.4;"><title>2</title></path><path class="link" d="M5,107.88461538461537C107.875,107.88461538461537 107.875,49.80769230769231 210.75,49.80769230769231" style="stroke-width: 9.615384615384615px; fill: none; stroke: rgb(191, 145, 105); stroke-opacity: 0.4;"><title>1</title></path><path class="link" d="M215.75,49.80769230769231C318.625,49.80769230769231 318.625,39.80769230769231 421.5,39.80769230769231" style="stroke-width: 9.615384615384615px; fill: none; stroke: rgb(158, 191, 105); stroke-opacity: 0.4;"><title>1</title></path><path class="link" d="M426.5,223.65384615384613C529.375,223.65384615384613 529.375,24.807692307692307 632.25,24.807692307692307" style="stroke-width: 9.615384615384615px; fill: none; stroke: rgb(118, 191, 105); stroke-opacity: 0.4;"><title>1</title></path><path class="link" d="M426.5,233.26923076923075C529.375,233.26923076923075 529.375,150.57692307692307 632.25,150.57692307692307" style="stroke-width: 9.615384615384615px; fill: none; stroke: rgb(118, 191, 105); stroke-opacity: 0.4;"><title>1</title></path><path class="link" d="M426.5,165.57692307692307C529.375,165.57692307692307 529.375,170.19230769230768 632.25,170.19230769230768" style="stroke-width: 9.615384615384615px; fill: none; stroke: rgb(105, 191, 131); stroke-opacity: 0.4;"><title>1</title></path><path class="link" d="M426.5,194.4230769230769C529.375,194.4230769230769 529.375,247.88461538461536 632.25,247.88461538461536" style="stroke-width: 9.615384615384615px; fill: none; stroke: rgb(105, 191, 131); stroke-opacity: 0.4;"><title>1</title></path><path class="link" d="M426.5,204.03846153846155C529.375,204.03846153846155 529.375,296.3461538461538 632.25,296.3461538461538" style="stroke-width: 9.615384615384615px; fill: none; stroke: rgb(105, 191, 131); stroke-opacity: 0.4;"><title>1</title></path><path class="link" d="M426.5,155.96153846153845C529.375,155.96153846153845 529.375,140.96153846153845 632.25,140.96153846153845" style="stroke-width: 9.615384615384615px; fill: none; stroke: rgb(105, 191, 131); stroke-opacity: 0.4;"><title>1</title></path><path class="link" d="M426.5,117.11538461538461C529.375,117.11538461538461 529.375,189.8076923076923 632.25,189.8076923076923" style="stroke-width: 9.615384615384615px; fill: none; stroke: rgb(105, 191, 171); stroke-opacity: 0.4;"><title>1</title></path><path class="link" d="M426.5,39.80769230769231C529.375,39.80769230769231 529.375,102.49999999999999 632.25,102.49999999999999" style="stroke-width: 9.615384615384615px; fill: none; stroke: rgb(105, 171, 191); stroke-opacity: 0.4;"><title>1</title></path><path class="link" d="M637.25,199.4230769230769C740.125,199.4230769230769 740.125,121.73076923076921 843,121.73076923076921" style="stroke-width: 9.615384615384615px; fill: none; stroke: rgb(105, 131, 191); stroke-opacity: 0.4;"><title>1</title></path><path class="link" d="M637.25,228.26923076923075C740.125,228.26923076923075 740.125,325.9615384615385 843,325.9615384615385" style="stroke-width: 9.615384615384615px; fill: none; stroke: rgb(105, 131, 191); stroke-opacity: 0.4;"><title>1</title></path><path class="link" d="M637.25,218.65384615384613C740.125,218.65384615384613 740.125,199.4230769230769 843,199.4230769230769" style="stroke-width: 9.615384615384615px; fill: none; stroke: rgb(105, 131, 191); stroke-opacity: 0.4;"><title>1</title></path><path class="link" d="M637.25,209.03846153846152C740.125,209.03846153846152 740.125,160.57692307692307 843,160.57692307692307" style="stroke-width: 9.615384615384615px; fill: none; stroke: rgb(105, 131, 191); stroke-opacity: 0.4;"><title>1</title></path><path class="link" d="M637.25,189.8076923076923C740.125,189.8076923076923 740.125,92.49999999999999 843,92.49999999999999" style="stroke-width: 9.615384615384615px; fill: none; stroke: rgb(105, 131, 191); stroke-opacity: 0.4;"><title>1</title></path><path class="link" d="M637.25,24.807692307692307C740.125,24.807692307692307 740.125,112.1153846153846 843,112.1153846153846" style="stroke-width: 9.615384615384615px; fill: none; stroke: rgb(105, 191, 131); stroke-opacity: 0.4;"><title>1</title></path><path class="link" d="M637.25,170.19230769230768C740.125,170.19230769230768 740.125,277.5 843,277.5" style="stroke-width: 9.615384615384615px; fill: none; stroke: rgb(118, 191, 105); stroke-opacity: 0.4;"><title>1</title></path><path class="link" d="M637.25,267.1153846153846C740.125,267.1153846153846 740.125,287.11538461538464 843,287.11538461538464" style="stroke-width: 9.615384615384615px; fill: none; stroke: rgb(118, 105, 191); stroke-opacity: 0.4;"><title>1</title></path><path class="link" d="M637.25,276.7307692307692C740.125,276.7307692307692 740.125,335.5769230769231 843,335.5769230769231" style="stroke-width: 9.615384615384615px; fill: none; stroke: rgb(118, 105, 191); stroke-opacity: 0.4;"><title>1</title></path><path class="link" d="M637.25,247.88461538461536C740.125,247.88461538461536 740.125,219.03846153846152 843,219.03846153846152" style="stroke-width: 9.615384615384615px; fill: none; stroke: rgb(118, 105, 191); stroke-opacity: 0.4;"><title>1</title></path><path class="link" d="M637.25,257.49999999999994C740.125,257.49999999999994 740.125,248.26923076923075 843,248.26923076923075" style="stroke-width: 9.615384615384615px; fill: none; stroke: rgb(118, 105, 191); stroke-opacity: 0.4;"><title>1</title></path><path class="link" d="M637.25,315.57692307692304C740.125,315.57692307692304 740.125,296.7307692307692 843,296.7307692307692" style="stroke-width: 9.615384615384615px; fill: none; stroke: rgb(158, 105, 191); stroke-opacity: 0.4;"><title>1</title></path><path class="link" d="M637.25,325.1923076923077C740.125,325.1923076923077 740.125,345.19230769230774 843,345.19230769230774" style="stroke-width: 9.615384615384615px; fill: none; stroke: rgb(158, 105, 191); stroke-opacity: 0.4;"><title>1</title></path><path class="link" d="M637.25,296.3461538461538C740.125,296.3461538461538 740.125,228.65384615384613 843,228.65384615384613" style="stroke-width: 9.615384615384615px; fill: none; stroke: rgb(158, 105, 191); stroke-opacity: 0.4;"><title>1</title></path><path class="link" d="M637.25,305.96153846153845C740.125,305.96153846153845 740.125,257.88461538461536 843,257.88461538461536" style="stroke-width: 9.615384615384615px; fill: none; stroke: rgb(158, 105, 191); stroke-opacity: 0.4;"><title>1</title></path><path class="link" d="M637.25,150.57692307692307C740.125,150.57692307692307 740.125,316.34615384615387 843,316.34615384615387" style="stroke-width: 9.615384615384615px; fill: none; stroke: rgb(191, 105, 184); stroke-opacity: 0.4;"><title>1</title></path><path class="link" d="M637.25,140.96153846153845C740.125,140.96153846153845 740.125,189.8076923076923 843,189.8076923076923" style="stroke-width: 9.615384615384615px; fill: none; stroke: rgb(191, 105, 184); stroke-opacity: 0.4;"><title>1</title></path><path class="link" d="M637.25,131.34615384615384C740.125,131.34615384615384 740.125,150.96153846153845 843,150.96153846153845" style="stroke-width: 9.615384615384615px; fill: none; stroke: rgb(191, 105, 184); stroke-opacity: 0.4;"><title>1</title></path><path class="link" d="M637.25,121.73076923076921C740.125,121.73076923076921 740.125,63.26923076923076 843,63.26923076923076" style="stroke-width: 9.615384615384615px; fill: none; stroke: rgb(191, 105, 184); stroke-opacity: 0.4;"><title>1</title></path><path class="link" d="M637.25,102.49999999999999C740.125,102.49999999999999 740.125,4.8076923076923075 843,4.8076923076923075" style="stroke-width: 9.615384615384615px; fill: none; stroke: rgb(191, 105, 184); stroke-opacity: 0.4;"><title>1</title></path><path class="link" d="M637.25,112.1153846153846C740.125,112.1153846153846 740.125,34.03846153846153 843,34.03846153846153" style="stroke-width: 9.615384615384615px; fill: none; stroke: rgb(191, 105, 184); stroke-opacity: 0.4;"><title>1</title></path><path class="link" d="M637.25,82.88461538461537C740.125,82.88461538461537 740.125,180.19230769230768 843,180.19230769230768" style="stroke-width: 9.615384615384615px; fill: none; stroke: rgb(191, 105, 145); stroke-opacity: 0.4;"><title>1</title></path><path class="link" d="M637.25,73.26923076923076C740.125,73.26923076923076 740.125,141.34615384615384 843,141.34615384615384" style="stroke-width: 9.615384615384615px; fill: none; stroke: rgb(191, 105, 145); stroke-opacity: 0.4;"><title>1</title></path><path class="link" d="M637.25,54.03846153846153C740.125,54.03846153846153 740.125,53.653846153846146 843,53.653846153846146" style="stroke-width: 9.615384615384615px; fill: none; stroke: rgb(191, 105, 145); stroke-opacity: 0.4;"><title>1</title></path><path class="link" d="M637.25,63.653846153846146C740.125,63.653846153846146 740.125,82.88461538461537 843,82.88461538461537" style="stroke-width: 9.615384615384615px; fill: none; stroke: rgb(191, 105, 145); stroke-opacity: 0.4;"><title>1</title></path><path class="link" d="M637.25,44.42307692307692C740.125,44.42307692307692 740.125,24.42307692307692 843,24.42307692307692" style="stroke-width: 9.615384615384615px; fill: none; stroke: rgb(191, 105, 145); stroke-opacity: 0.4;"><title>1</title></path></g><g><g class="node" transform="translate(0,45)"><rect height="48.07692307692307" width="5"><title>Albany5</title></rect><text x="11" y="24.038461538461537" dy=".35em" text-anchor="start" style="font-size: 11px; font-family: Arial, Helvetica; pointer-events: none;">Albany</text></g><g class="node" transform="translate(0,103.07692307692307)"><rect height="201.9230769230769" width="5"><title>Perth21</title></rect><text x="11" y="100.96153846153845" dy=".35em" text-anchor="start" style="font-size: 11px; font-family: Arial, Helvetica; pointer-events: none;">Perth</text></g><g class="node" transform="translate(843,311.53846153846155)"><rect height="38.46153846153846" width="5" style="fill: rgb(102, 102, 102);"><title>Bruce Miller4</title></rect><text x="-6" y="19.23076923076923" dy=".35em" text-anchor="end" style="font-size: 11px; font-family: Arial, Helvetica; pointer-events: none;">Bruce Miller</text></g><g class="node" transform="translate(843,272.6923076923077)"><rect height="28.846153846153847" width="5" style="fill: rgb(102, 102, 102);"><title>David Rowley3</title></rect><text x="-6" y="14.423076923076923" dy=".35em" text-anchor="end" style="font-size: 11px; font-family: Arial, Helvetica; pointer-events: none;">David Rowley</text></g><g class="node" transform="translate(843,0)"><rect height="9.615384615384615" width="5" style="fill: rgb(102, 102, 102);"><title>David Spatcher1</title></rect><text x="-6" y="4.8076923076923075" dy=".35em" text-anchor="end" style="font-size: 11px; font-family: Arial, Helvetica; pointer-events: none;">David Spatcher</text></g><g class="node" transform="translate(843,243.46153846153842)"><rect height="19.23076923076923" width="5" style="fill: rgb(102, 102, 102);"><title>Doug Bester2</title></rect><text x="-6" y="9.615384615384615" dy=".35em" text-anchor="end" style="font-size: 11px; font-family: Arial, Helvetica; pointer-events: none;">Doug Bester</text></g><g class="node" transform="translate(843,214.2307692307692)"><rect height="19.23076923076923" width="5" style="fill: rgb(102, 102, 102);"><title>Dr Vivienne Conway2</title></rect><text x="-6" y="9.615384615384615" dy=".35em" text-anchor="end" style="font-size: 11px; font-family: Arial, Helvetica; pointer-events: none;">Dr Vivienne Conway</text></g><g class="node" transform="translate(843,175.38461538461536)"><rect height="28.846153846153847" width="5" style="fill: rgb(102, 102, 102);"><title>Jens Klump3</title></rect><text x="-6" y="14.423076923076923" dy=".35em" text-anchor="end" style="font-size: 11px; font-family: Arial, Helvetica; pointer-events: none;">Jens Klump</text></g><g class="node" transform="translate(843,78.07692307692307)"><rect height="19.23076923076923" width="5" style="fill: rgb(102, 102, 102);"><title>Keith Moss2</title></rect><text x="-6" y="9.615384615384615" dy=".35em" text-anchor="end" style="font-size: 11px; font-family: Arial, Helvetica; pointer-events: none;">Keith Moss</text></g><g class="node" transform="translate(843,48.84615384615384)"><rect height="19.23076923076923" width="5" style="fill: rgb(102, 102, 102);"><title>Lise Summers2</title></rect><text x="-6" y="9.615384615384615" dy=".35em" text-anchor="end" style="font-size: 11px; font-family: Arial, Helvetica; pointer-events: none;">Lise Summers</text></g><g class="node" transform="translate(843,136.53846153846152)"><rect height="28.846153846153847" width="5" style="fill: rgb(102, 102, 102);"><title>My Nguyen3</title></rect><text x="-6" y="14.423076923076923" dy=".35em" text-anchor="end" style="font-size: 11px; font-family: Arial, Helvetica; pointer-events: none;">My Nguyen</text></g><g class="node" transform="translate(843,107.30769230769229)"><rect height="19.23076923076923" width="5" style="fill: rgb(102, 102, 102);"><title>Trish Ryans-Taylor2</title></rect><text x="-6" y="9.615384615384615" dy=".35em" text-anchor="end" style="font-size: 11px; font-family: Arial, Helvetica; pointer-events: none;">Trish Ryans-Taylor</text></g><g class="node" transform="translate(843,19.615384615384613)"><rect height="19.23076923076923" width="5" style="fill: rgb(102, 102, 102);"><title>Viet Duong2</title></rect><text x="-6" y="9.615384615384615" dy=".35em" text-anchor="end" style="font-size: 11px; font-family: Arial, Helvetica; pointer-events: none;">Viet Duong</text></g><g class="node" transform="translate(421.5,35)"><rect height="9.615384615384615" width="5"><title>Data1</title></rect><text x="11" y="4.8076923076923075" dy=".35em" text-anchor="start" style="font-size: 11px; font-family: Arial, Helvetica; pointer-events: none;">Data</text></g><g class="node" transform="translate(421.5,54.61538461538461)"><rect height="67.3076923076923" width="5"><title>Data Science7</title></rect><text x="11" y="33.65384615384615" dy=".35em" text-anchor="start" style="font-size: 11px; font-family: Arial, Helvetica; pointer-events: none;">Data Science</text></g><g class="node" transform="translate(421.5,218.8461538461538)"><rect height="96.15384615384615" width="5"><title>Strategy10</title></rect><text x="11" y="48.07692307692307" dy=".35em" text-anchor="start" style="font-size: 11px; font-family: Arial, Helvetica; pointer-events: none;">Strategy</text></g><g class="node" transform="translate(421.5,131.9230769230769)"><rect height="76.92307692307692" width="5"><title>Technical8</title></rect><text x="11" y="38.46153846153846" dy=".35em" text-anchor="start" style="font-size: 11px; font-family: Arial, Helvetica; pointer-events: none;">Technical</text></g><g class="node" transform="translate(632.25,184.99999999999997)"><rect height="48.07692307692307" width="5"><title>Data science/stats5</title></rect><text x="-6" y="24.038461538461537" dy=".35em" text-anchor="end" style="font-size: 11px; font-family: Arial, Helvetica; pointer-events: none;">Data science/stats</text></g><g class="node" transform="translate(632.25,97.69230769230768)"><rect height="57.69230769230769" width="5"><title>Datasets6</title></rect><text x="-6" y="28.846153846153847" dy=".35em" text-anchor="end" style="font-size: 11px; font-family: Arial, Helvetica; pointer-events: none;">Datasets</text></g><g class="node" transform="translate(632.25,291.5384615384615)"><rect height="38.46153846153846" width="5"><title>presentations4</title></rect><text x="-6" y="19.23076923076923" dy=".35em" text-anchor="end" style="font-size: 11px; font-family: Arial, Helvetica; pointer-events: none;">presentations</text></g><g class="node" transform="translate(632.25,243.07692307692304)"><rect height="38.46153846153846" width="5"><title>product development4</title></rect><text x="-6" y="19.23076923076923" dy=".35em" text-anchor="end" style="font-size: 11px; font-family: Arial, Helvetica; pointer-events: none;">product development</text></g><g class="node" transform="translate(632.25,165.38461538461536)"><rect height="9.615384615384615" width="5"><title>Strategy1</title></rect><text x="-6" y="4.8076923076923075" dy=".35em" text-anchor="end" style="font-size: 11px; font-family: Arial, Helvetica; pointer-events: none;">Strategy</text></g><g class="node" transform="translate(632.25,39.61538461538461)"><rect height="48.07692307692307" width="5"><title>Systems/APIs5</title></rect><text x="-6" y="24.038461538461537" dy=".35em" text-anchor="end" style="font-size: 11px; font-family: Arial, Helvetica; pointer-events: none;">Systems/APIs</text></g><g class="node" transform="translate(632.25,20)"><rect height="9.615384615384615" width="5"><title>Technical1</title></rect><text x="-6" y="4.8076923076923075" dy=".35em" text-anchor="end" style="font-size: 11px; font-family: Arial, Helvetica; pointer-events: none;">Technical</text></g><g class="node" transform="translate(210.75,64.61538461538461)"><rect height="240.3846153846154" width="5"><title>Coach25</title></rect><text x="11" y="120.1923076923077" dy=".35em" text-anchor="start" style="font-size: 11px; font-family: Arial, Helvetica; pointer-events: none;">Coach</text></g><g class="node" transform="translate(210.75,45)"><rect height="9.615384615384615" width="5"><title>Mentor1</title></rect><text x="11" y="4.8076923076923075" dy=".35em" text-anchor="start" style="font-size: 11px; font-family: Arial, Helvetica; pointer-events: none;">Mentor</text></g></g></g></svg>
