<svg width="848" height="320" xmlns="http://www.w3.org/2000/svg" version="1.1"><g transform="translate(0,10)"><g><path class="link" d="M5,205.3125C107.875,205.3125 107.875,205.3125 210.75,205.3125" style="stroke-width: 129.375px; fill: none; stroke: rgb(191, 142, 105); stroke-opacity: 0.4;"><title>9</title></path><path class="link" d="M5,97.5C107.875,97.5 107.875,87.5 210.75,87.5" style="stroke-width: 86.25px; fill: none; stroke: rgb(191, 142, 105); stroke-opacity: 0.4;"><title>6</title></path><path class="link" d="M215.75,226.875C318.625,226.875 318.625,231.875 421.5,231.875" style="stroke-width: 86.25px; fill: none; stroke: rgb(166, 191, 105); stroke-opacity: 0.4;"><title>6</title></path><path class="link" d="M215.75,65.9375C318.625,65.9375 318.625,60.9375 421.5,60.9375" style="stroke-width: 71.875px; fill: none; stroke: rgb(191, 179, 105); stroke-opacity: 0.4;"><title>5</title></path><path class="link" d="M215.75,162.1875C318.625,162.1875 318.625,128.4375 421.5,128.4375" style="stroke-width: 43.125px; fill: none; stroke: rgb(166, 191, 105); stroke-opacity: 0.4;"><title>3</title></path><path class="link" d="M215.75,116.25C318.625,116.25 318.625,174.375 421.5,174.375" style="stroke-width: 28.75px; fill: none; stroke: rgb(191, 179, 105); stroke-opacity: 0.4;"><title>2</title></path><path class="link" d="M426.5,68.125C529.375,68.125 529.375,77.5 632.25,77.5" style="stroke-width: 28.75px; fill: none; stroke: rgb(130, 191, 105); stroke-opacity: 0.4;"><title>2</title></path><path class="link" d="M426.5,203.125C529.375,203.125 529.375,145 632.25,145" style="stroke-width: 28.75px; fill: none; stroke: rgb(105, 191, 117); stroke-opacity: 0.4;"><title>2</title></path><path class="link" d="M5,37.1875C107.875,37.1875 107.875,37.1875 210.75,37.1875" style="stroke-width: 14.375px; fill: none; stroke: rgb(191, 105, 105); stroke-opacity: 0.4;"><title>1</title></path><path class="link" d="M426.5,32.1875C529.375,32.1875 529.375,7.1875 632.25,7.1875" style="stroke-width: 14.375px; fill: none; stroke: rgb(130, 191, 105); stroke-opacity: 0.4;"><title>1</title></path><path class="link" d="M426.5,89.6875C529.375,89.6875 529.375,123.4375 632.25,123.4375" style="stroke-width: 14.375px; fill: none; stroke: rgb(130, 191, 105); stroke-opacity: 0.4;"><title>1</title></path><path class="link" d="M426.5,46.5625C529.375,46.5625 529.375,31.5625 632.25,31.5625" style="stroke-width: 14.375px; fill: none; stroke: rgb(130, 191, 105); stroke-opacity: 0.4;"><title>1</title></path><path class="link" d="M426.5,267.8125C529.375,267.8125 529.375,292.8125 632.25,292.8125" style="stroke-width: 14.375px; fill: none; stroke: rgb(105, 191, 117); stroke-opacity: 0.4;"><title>1</title></path><path class="link" d="M426.5,181.5625C529.375,181.5625 529.375,99.0625 632.25,99.0625" style="stroke-width: 14.375px; fill: none; stroke: rgb(105, 191, 117); stroke-opacity: 0.4;"><title>1</title></path><path class="link" d="M426.5,224.6875C529.375,224.6875 529.375,190.9375 632.25,190.9375" style="stroke-width: 14.375px; fill: none; stroke: rgb(105, 191, 117); stroke-opacity: 0.4;"><title>1</title></path><path class="link" d="M426.5,239.0625C529.375,239.0625 529.375,229.6875 632.25,229.6875" style="stroke-width: 14.375px; fill: none; stroke: rgb(105, 191, 117); stroke-opacity: 0.4;"><title>1</title></path><path class="link" d="M426.5,253.4375C529.375,253.4375 529.375,268.4375 632.25,268.4375" style="stroke-width: 14.375px; fill: none; stroke: rgb(105, 191, 117); stroke-opacity: 0.4;"><title>1</title></path><path class="link" d="M426.5,167.1875C529.375,167.1875 529.375,45.9375 632.25,45.9375" style="stroke-width: 14.375px; fill: none; stroke: rgb(105, 191, 117); stroke-opacity: 0.4;"><title>1</title></path><path class="link" d="M426.5,114.0625C529.375,114.0625 529.375,176.5625 632.25,176.5625" style="stroke-width: 14.375px; fill: none; stroke: rgb(105, 191, 154); stroke-opacity: 0.4;"><title>1</title></path><path class="link" d="M426.5,128.4375C529.375,128.4375 529.375,215.3125 632.25,215.3125" style="stroke-width: 14.375px; fill: none; stroke: rgb(105, 191, 154); stroke-opacity: 0.4;"><title>1</title></path><path class="link" d="M426.5,142.8125C529.375,142.8125 529.375,254.0625 632.25,254.0625" style="stroke-width: 14.375px; fill: none; stroke: rgb(105, 191, 154); stroke-opacity: 0.4;"><title>1</title></path><path class="link" d="M637.25,70.3125C740.125,70.3125 740.125,41.5625 843,41.5625" style="stroke-width: 14.375px; fill: none; stroke: rgb(105, 191, 191); stroke-opacity: 0.4;"><title>1</title></path><path class="link" d="M637.25,99.0625C740.125,99.0625 740.125,210.9375 843,210.9375" style="stroke-width: 14.375px; fill: none; stroke: rgb(105, 191, 191); stroke-opacity: 0.4;"><title>1</title></path><path class="link" d="M637.25,84.6875C740.125,84.6875 740.125,119.0625 843,119.0625" style="stroke-width: 14.375px; fill: none; stroke: rgb(105, 191, 191); stroke-opacity: 0.4;"><title>1</title></path><path class="link" d="M637.25,7.1875C740.125,7.1875 740.125,17.1875 843,17.1875" style="stroke-width: 14.375px; fill: none; stroke: rgb(105, 154, 191); stroke-opacity: 0.4;"><title>1</title></path><path class="link" d="M637.25,152.1875C740.125,152.1875 740.125,225.3125 843,225.3125" style="stroke-width: 14.375px; fill: none; stroke: rgb(105, 117, 191); stroke-opacity: 0.4;"><title>1</title></path><path class="link" d="M637.25,137.8125C740.125,137.8125 740.125,133.4375 843,133.4375" style="stroke-width: 14.375px; fill: none; stroke: rgb(105, 117, 191); stroke-opacity: 0.4;"><title>1</title></path><path class="link" d="M637.25,123.4375C740.125,123.4375 740.125,80.3125 843,80.3125" style="stroke-width: 14.375px; fill: none; stroke: rgb(105, 117, 191); stroke-opacity: 0.4;"><title>1</title></path><path class="link" d="M637.25,292.8125C740.125,292.8125 740.125,282.8125 843,282.8125" style="stroke-width: 14.375px; fill: none; stroke: rgb(130, 105, 191); stroke-opacity: 0.4;"><title>1</title></path><path class="link" d="M637.25,190.9375C740.125,190.9375 740.125,239.6875 843,239.6875" style="stroke-width: 14.375px; fill: none; stroke: rgb(166, 105, 191); stroke-opacity: 0.4;"><title>1</title></path><path class="link" d="M637.25,176.5625C740.125,176.5625 740.125,157.8125 843,157.8125" style="stroke-width: 14.375px; fill: none; stroke: rgb(166, 105, 191); stroke-opacity: 0.4;"><title>1</title></path><path class="link" d="M637.25,229.6875C740.125,229.6875 740.125,254.0625 843,254.0625" style="stroke-width: 14.375px; fill: none; stroke: rgb(191, 105, 179); stroke-opacity: 0.4;"><title>1</title></path><path class="link" d="M637.25,215.3125C740.125,215.3125 740.125,172.1875 843,172.1875" style="stroke-width: 14.375px; fill: none; stroke: rgb(191, 105, 179); stroke-opacity: 0.4;"><title>1</title></path><path class="link" d="M637.25,268.4375C740.125,268.4375 740.125,268.4375 843,268.4375" style="stroke-width: 14.375px; fill: none; stroke: rgb(191, 105, 142); stroke-opacity: 0.4;"><title>1</title></path><path class="link" d="M637.25,254.0625C740.125,254.0625 740.125,186.5625 843,186.5625" style="stroke-width: 14.375px; fill: none; stroke: rgb(191, 105, 142); stroke-opacity: 0.4;"><title>1</title></path><path class="link" d="M637.25,45.9375C740.125,45.9375 740.125,104.6875 843,104.6875" style="stroke-width: 14.375px; fill: none; stroke: rgb(105, 191, 117); stroke-opacity: 0.4;"><title>1</title></path><path class="link" d="M637.25,31.5625C740.125,31.5625 740.125,65.9375 843,65.9375" style="stroke-width: 14.375px; fill: none; stroke: rgb(105, 191, 117); stroke-opacity: 0.4;"><title>1</title></path></g><g><g class="node" transform="translate(0,30)"><rect height="14.375" width="5"><title>Alice Springs1</title></rect><text x="11" y="7.1875" dy=".35em" text-anchor="start" style="font-size: 11px; font-family: Arial, Helvetica; pointer-events: none;">Alice Springs</text></g><g class="node" transform="translate(0,54.375)"><rect height="215.625" width="5"><title>Darwin15</title></rect><text x="11" y="107.8125" dy=".35em" text-anchor="start" style="font-size: 11px; font-family: Arial, Helvetica; pointer-events: none;">Darwin</text></g><g class="node" transform="translate(843,58.75)"><rect height="28.75" width="5" style="fill: rgb(102, 102, 102);"><title>Daniel Atkins2</title></rect><text x="-6" y="14.375" dy=".35em" text-anchor="end" style="font-size: 11px; font-family: Arial, Helvetica; pointer-events: none;">Daniel Atkins</text></g><g class="node" transform="translate(843,203.75)"><rect height="86.25" width="5" style="fill: rgb(102, 102, 102);"><title>Eduardo (Ed) Fernandez6</title></rect><text x="-6" y="43.125" dy=".35em" text-anchor="end" style="font-size: 11px; font-family: Arial, Helvetica; pointer-events: none;">Eduardo (Ed) Fernandez</text></g><g class="node" transform="translate(843,10)"><rect height="14.375" width="5" style="fill: rgb(102, 102, 102);"><title>khalid khan1</title></rect><text x="-6" y="7.1875" dy=".35em" text-anchor="end" style="font-size: 11px; font-family: Arial, Helvetica; pointer-events: none;">khalid khan</text></g><g class="node" transform="translate(843,34.375)"><rect height="14.375" width="5" style="fill: rgb(102, 102, 102);"><title>Richard Cox1</title></rect><text x="-6" y="7.1875" dy=".35em" text-anchor="end" style="font-size: 11px; font-family: Arial, Helvetica; pointer-events: none;">Richard Cox</text></g><g class="node" transform="translate(843,97.5)"><rect height="43.125" width="5" style="fill: rgb(102, 102, 102);"><title>Stefan Maier3</title></rect><text x="-6" y="21.5625" dy=".35em" text-anchor="end" style="font-size: 11px; font-family: Arial, Helvetica; pointer-events: none;">Stefan Maier</text></g><g class="node" transform="translate(843,150.625)"><rect height="43.125" width="5" style="fill: rgb(102, 102, 102);"><title>Sue Barnes3</title></rect><text x="-6" y="21.5625" dy=".35em" text-anchor="end" style="font-size: 11px; font-family: Arial, Helvetica; pointer-events: none;">Sue Barnes</text></g><g class="node" transform="translate(421.5,25)"><rect height="71.875" width="5"><title>Data Science5</title></rect><text x="11" y="35.9375" dy=".35em" text-anchor="start" style="font-size: 11px; font-family: Arial, Helvetica; pointer-events: none;">Data Science</text></g><g class="node" transform="translate(421.5,106.875)"><rect height="43.125" width="5"><title>Policy3</title></rect><text x="11" y="21.5625" dy=".35em" text-anchor="start" style="font-size: 11px; font-family: Arial, Helvetica; pointer-events: none;">Policy</text></g><g class="node" transform="translate(421.5,160)"><rect height="115" width="5"><title>Technical8</title></rect><text x="11" y="57.5" dy=".35em" text-anchor="start" style="font-size: 11px; font-family: Arial, Helvetica; pointer-events: none;">Technical</text></g><g class="node" transform="translate(632.25,0)"><rect height="14.375" width="5"><title>Any1</title></rect><text x="-6" y="7.1875" dy=".35em" text-anchor="end" style="font-size: 11px; font-family: Arial, Helvetica; pointer-events: none;">Any</text></g><g class="node" transform="translate(632.25,63.125)"><rect height="43.125" width="5"><title>Data science/stats3</title></rect><text x="-6" y="21.5625" dy=".35em" text-anchor="end" style="font-size: 11px; font-family: Arial, Helvetica; pointer-events: none;">Data science/stats</text></g><g class="node" transform="translate(632.25,116.25)"><rect height="43.125" width="5"><title>Datasets3</title></rect><text x="-6" y="21.5625" dy=".35em" text-anchor="end" style="font-size: 11px; font-family: Arial, Helvetica; pointer-events: none;">Datasets</text></g><g class="node" transform="translate(632.25,246.875)"><rect height="28.75" width="5"><title>presentations2</title></rect><text x="-6" y="14.375" dy=".35em" text-anchor="end" style="font-size: 11px; font-family: Arial, Helvetica; pointer-events: none;">presentations</text></g><g class="node" transform="translate(632.25,208.125)"><rect height="28.75" width="5"><title>product development2</title></rect><text x="-6" y="14.375" dy=".35em" text-anchor="end" style="font-size: 11px; font-family: Arial, Helvetica; pointer-events: none;">product development</text></g><g class="node" transform="translate(632.25,169.375)"><rect height="28.75" width="5"><title>Strategy2</title></rect><text x="-6" y="14.375" dy=".35em" text-anchor="end" style="font-size: 11px; font-family: Arial, Helvetica; pointer-events: none;">Strategy</text></g><g class="node" transform="translate(632.25,285.625)"><rect height="14.375" width="5"><title>Systems/APIs1</title></rect><text x="-6" y="7.1875" dy=".35em" text-anchor="end" style="font-size: 11px; font-family: Arial, Helvetica; pointer-events: none;">Systems/APIs</text></g><g class="node" transform="translate(632.25,24.375)"><rect height="28.75" width="5"><title>Technical2</title></rect><text x="-6" y="14.375" dy=".35em" text-anchor="end" style="font-size: 11px; font-family: Arial, Helvetica; pointer-events: none;">Technical</text></g><g class="node" transform="translate(210.75,30)"><rect height="100.625" width="5"><title>Coach7</title></rect><text x="11" y="50.3125" dy=".35em" text-anchor="start" style="font-size: 11px; font-family: Arial, Helvetica; pointer-events: none;">Coach</text></g><g class="node" transform="translate(210.75,140.625)"><rect height="129.375" width="5"><title>Mentor9</title></rect><text x="11" y="64.6875" dy=".35em" text-anchor="start" style="font-size: 11px; font-family: Arial, Helvetica; pointer-events: none;">Mentor</text></g></g></g></svg>
