<svg width="848" height="370" xmlns="http://www.w3.org/2000/svg" version="1.1"><g transform="translate(0,10)"><g><path class="link" d="M5,213.88888888888889C107.875,213.88888888888889 107.875,218.88888888888889 210.75,218.88888888888889" style="stroke-width: 132.22222222222223px; fill: none; stroke: rgb(191, 105, 105); stroke-opacity: 0.4;"><title>17</title></path><path class="link" d="M5,108.88888888888889C107.875,108.88888888888889 107.875,103.88888888888889 210.75,103.88888888888889" style="stroke-width: 77.77777777777777px; fill: none; stroke: rgb(191, 105, 105); stroke-opacity: 0.4;"><title>10</title></path><path class="link" d="M215.75,115.55555555555554C318.625,115.55555555555554 318.625,110.55555555555554 421.5,110.55555555555554" style="stroke-width: 54.44444444444444px; fill: none; stroke: rgb(191, 142, 105); stroke-opacity: 0.4;"><title>7</title></path><path class="link" d="M215.75,261.66666666666663C318.625,261.66666666666663 318.625,276.66666666666663 421.5,276.66666666666663" style="stroke-width: 46.666666666666664px; fill: none; stroke: rgb(191, 179, 105); stroke-opacity: 0.4;"><title>6</title></path><path class="link" d="M215.75,215C318.625,215 318.625,220 421.5,220" style="stroke-width: 46.666666666666664px; fill: none; stroke: rgb(191, 179, 105); stroke-opacity: 0.4;"><title>6</title></path><path class="link" d="M215.75,172.22222222222223C318.625,172.22222222222223 318.625,167.22222222222223 421.5,167.22222222222223" style="stroke-width: 38.888888888888886px; fill: none; stroke: rgb(191, 179, 105); stroke-opacity: 0.4;"><title>5</title></path><path class="link" d="M215.75,76.66666666666667C318.625,76.66666666666667 318.625,61.666666666666664 421.5,61.666666666666664" style="stroke-width: 23.333333333333332px; fill: none; stroke: rgb(191, 142, 105); stroke-opacity: 0.4;"><title>3</title></path><path class="link" d="M426.5,110.55555555555556C529.375,110.55555555555556 529.375,103.33333333333337 632.25,103.33333333333337" style="stroke-width: 23.333333333333332px; fill: none; stroke: rgb(105, 191, 117); stroke-opacity: 0.4;"><title>3</title></path><path class="link" d="M426.5,65.55555555555556C529.375,65.55555555555556 529.375,83.88888888888891 632.25,83.88888888888891" style="stroke-width: 15.555555555555555px; fill: none; stroke: rgb(166, 191, 105); stroke-opacity: 0.4;"><title>2</title></path><path class="link" d="M426.5,130C529.375,130 529.375,148.33333333333337 632.25,148.33333333333337" style="stroke-width: 15.555555555555555px; fill: none; stroke: rgb(105, 191, 117); stroke-opacity: 0.4;"><title>2</title></path><path class="link" d="M426.5,91.1111111111111C529.375,91.1111111111111 529.375,50.555555555555586 632.25,50.555555555555586" style="stroke-width: 15.555555555555555px; fill: none; stroke: rgb(105, 191, 117); stroke-opacity: 0.4;"><title>2</title></path><path class="link" d="M426.5,268.88888888888886C529.375,268.88888888888886 529.375,215 632.25,215" style="stroke-width: 15.555555555555555px; fill: none; stroke: rgb(105, 191, 154); stroke-opacity: 0.4;"><title>2</title></path><path class="link" d="M426.5,53.888888888888886C529.375,53.888888888888886 529.375,38.888888888888914 632.25,38.888888888888914" style="stroke-width: 7.777777777777778px; fill: none; stroke: rgb(166, 191, 105); stroke-opacity: 0.4;"><title>1</title></path><path class="link" d="M426.5,159.44444444444443C529.375,159.44444444444443 529.375,118.88888888888891 632.25,118.88888888888891" style="stroke-width: 7.777777777777778px; fill: none; stroke: rgb(130, 191, 105); stroke-opacity: 0.4;"><title>1</title></path><path class="link" d="M426.5,167.2222222222222C529.375,167.2222222222222 529.375,177.7777777777778 632.25,177.7777777777778" style="stroke-width: 7.777777777777778px; fill: none; stroke: rgb(130, 191, 105); stroke-opacity: 0.4;"><title>1</title></path><path class="link" d="M426.5,175C529.375,175 529.375,236.66666666666666 632.25,236.66666666666666" style="stroke-width: 7.777777777777778px; fill: none; stroke: rgb(130, 191, 105); stroke-opacity: 0.4;"><title>1</title></path><path class="link" d="M426.5,182.77777777777777C529.375,182.77777777777777 529.375,270 632.25,270" style="stroke-width: 7.777777777777778px; fill: none; stroke: rgb(130, 191, 105); stroke-opacity: 0.4;"><title>1</title></path><path class="link" d="M426.5,151.66666666666666C529.375,151.66666666666666 529.375,62.22222222222224 632.25,62.22222222222224" style="stroke-width: 7.777777777777778px; fill: none; stroke: rgb(130, 191, 105); stroke-opacity: 0.4;"><title>1</title></path><path class="link" d="M426.5,296.1111111111111C529.375,296.1111111111111 529.375,311.1111111111111 632.25,311.1111111111111" style="stroke-width: 7.777777777777778px; fill: none; stroke: rgb(105, 191, 154); stroke-opacity: 0.4;"><title>1</title></path><path class="link" d="M426.5,257.22222222222223C529.375,257.22222222222223 529.375,185.55555555555557 632.25,185.55555555555557" style="stroke-width: 7.777777777777778px; fill: none; stroke: rgb(105, 191, 154); stroke-opacity: 0.4;"><title>1</title></path><path class="link" d="M426.5,280.55555555555554C529.375,280.55555555555554 529.375,252.2222222222222 632.25,252.2222222222222" style="stroke-width: 7.777777777777778px; fill: none; stroke: rgb(105, 191, 154); stroke-opacity: 0.4;"><title>1</title></path><path class="link" d="M426.5,288.3333333333333C529.375,288.3333333333333 529.375,285.55555555555554 632.25,285.55555555555554" style="stroke-width: 7.777777777777778px; fill: none; stroke: rgb(105, 191, 154); stroke-opacity: 0.4;"><title>1</title></path><path class="link" d="M426.5,200.55555555555554C529.375,200.55555555555554 529.375,126.66666666666669 632.25,126.66666666666669" style="stroke-width: 7.777777777777778px; fill: none; stroke: rgb(105, 191, 191); stroke-opacity: 0.4;"><title>1</title></path><path class="link" d="M426.5,208.33333333333331C529.375,208.33333333333331 529.375,160.00000000000003 632.25,160.00000000000003" style="stroke-width: 7.777777777777778px; fill: none; stroke: rgb(105, 191, 191); stroke-opacity: 0.4;"><title>1</title></path><path class="link" d="M426.5,216.1111111111111C529.375,216.1111111111111 529.375,203.33333333333334 632.25,203.33333333333334" style="stroke-width: 7.777777777777778px; fill: none; stroke: rgb(105, 191, 191); stroke-opacity: 0.4;"><title>1</title></path><path class="link" d="M426.5,239.44444444444443C529.375,239.44444444444443 529.375,303.3333333333333 632.25,303.3333333333333" style="stroke-width: 7.777777777777778px; fill: none; stroke: rgb(105, 191, 191); stroke-opacity: 0.4;"><title>1</title></path><path class="link" d="M426.5,223.88888888888889C529.375,223.88888888888889 529.375,244.44444444444443 632.25,244.44444444444443" style="stroke-width: 7.777777777777778px; fill: none; stroke: rgb(105, 191, 191); stroke-opacity: 0.4;"><title>1</title></path><path class="link" d="M426.5,231.66666666666666C529.375,231.66666666666666 529.375,277.77777777777777 632.25,277.77777777777777" style="stroke-width: 7.777777777777778px; fill: none; stroke: rgb(105, 191, 191); stroke-opacity: 0.4;"><title>1</title></path><path class="link" d="M637.25,87.7777777777778C740.125,87.7777777777778 740.125,92.7777777777778 843,92.7777777777778" style="stroke-width: 7.777777777777778px; fill: none; stroke: rgb(105, 154, 191); stroke-opacity: 0.4;"><title>1</title></path><path class="link" d="M637.25,103.33333333333336C740.125,103.33333333333336 740.125,128.33333333333334 843,128.33333333333334" style="stroke-width: 7.777777777777778px; fill: none; stroke: rgb(105, 154, 191); stroke-opacity: 0.4;"><title>1</title></path><path class="link" d="M637.25,111.11111111111114C740.125,111.11111111111114 740.125,146.11111111111111 843,146.11111111111111" style="stroke-width: 7.777777777777778px; fill: none; stroke: rgb(105, 154, 191); stroke-opacity: 0.4;"><title>1</title></path><path class="link" d="M637.25,80.00000000000003C740.125,80.00000000000003 740.125,75.00000000000003 843,75.00000000000003" style="stroke-width: 7.777777777777778px; fill: none; stroke: rgb(105, 154, 191); stroke-opacity: 0.4;"><title>1</title></path><path class="link" d="M637.25,95.55555555555559C740.125,95.55555555555559 740.125,110.55555555555557 843,110.55555555555557" style="stroke-width: 7.777777777777778px; fill: none; stroke: rgb(105, 154, 191); stroke-opacity: 0.4;"><title>1</title></path><path class="link" d="M637.25,118.88888888888891C740.125,118.88888888888891 740.125,181.66666666666666 843,181.66666666666666" style="stroke-width: 7.777777777777778px; fill: none; stroke: rgb(105, 154, 191); stroke-opacity: 0.4;"><title>1</title></path><path class="link" d="M637.25,126.66666666666669C740.125,126.66666666666669 740.125,307.2222222222222 843,307.2222222222222" style="stroke-width: 7.777777777777778px; fill: none; stroke: rgb(105, 154, 191); stroke-opacity: 0.4;"><title>1</title></path><path class="link" d="M637.25,144.44444444444449C740.125,144.44444444444449 740.125,163.88888888888889 843,163.88888888888889" style="stroke-width: 7.777777777777778px; fill: none; stroke: rgb(105, 117, 191); stroke-opacity: 0.4;"><title>1</title></path><path class="link" d="M637.25,152.22222222222226C740.125,152.22222222222226 740.125,189.44444444444443 843,189.44444444444443" style="stroke-width: 7.777777777777778px; fill: none; stroke: rgb(105, 117, 191); stroke-opacity: 0.4;"><title>1</title></path><path class="link" d="M637.25,160.00000000000003C740.125,160.00000000000003 740.125,314.99999999999994 843,314.99999999999994" style="stroke-width: 7.777777777777778px; fill: none; stroke: rgb(105, 117, 191); stroke-opacity: 0.4;"><title>1</title></path><path class="link" d="M637.25,177.7777777777778C740.125,177.7777777777778 740.125,224.99999999999997 843,224.99999999999997" style="stroke-width: 7.777777777777778px; fill: none; stroke: rgb(105, 191, 191); stroke-opacity: 0.4;"><title>1</title></path><path class="link" d="M637.25,185.55555555555557C740.125,185.55555555555557 740.125,258.3333333333333 843,258.3333333333333" style="stroke-width: 7.777777777777778px; fill: none; stroke: rgb(105, 191, 191); stroke-opacity: 0.4;"><title>1</title></path><path class="link" d="M637.25,236.66666666666666C740.125,236.66666666666666 740.125,232.77777777777774 843,232.77777777777774" style="stroke-width: 7.777777777777778px; fill: none; stroke: rgb(130, 105, 191); stroke-opacity: 0.4;"><title>1</title></path><path class="link" d="M637.25,244.44444444444443C740.125,244.44444444444443 740.125,273.88888888888886 843,273.88888888888886" style="stroke-width: 7.777777777777778px; fill: none; stroke: rgb(130, 105, 191); stroke-opacity: 0.4;"><title>1</title></path><path class="link" d="M637.25,252.2222222222222C740.125,252.2222222222222 740.125,330.5555555555555 843,330.5555555555555" style="stroke-width: 7.777777777777778px; fill: none; stroke: rgb(130, 105, 191); stroke-opacity: 0.4;"><title>1</title></path><path class="link" d="M637.25,270C740.125,270 740.125,240.55555555555551 843,240.55555555555551" style="stroke-width: 7.777777777777778px; fill: none; stroke: rgb(166, 105, 191); stroke-opacity: 0.4;"><title>1</title></path><path class="link" d="M637.25,277.77777777777777C740.125,277.77777777777777 740.125,281.66666666666663 843,281.66666666666663" style="stroke-width: 7.777777777777778px; fill: none; stroke: rgb(166, 105, 191); stroke-opacity: 0.4;"><title>1</title></path><path class="link" d="M637.25,285.55555555555554C740.125,285.55555555555554 740.125,338.33333333333326 843,338.33333333333326" style="stroke-width: 7.777777777777778px; fill: none; stroke: rgb(166, 105, 191); stroke-opacity: 0.4;"><title>1</title></path><path class="link" d="M637.25,46.66666666666669C740.125,46.66666666666669 740.125,21.666666666666696 843,21.666666666666696" style="stroke-width: 7.777777777777778px; fill: none; stroke: rgb(191, 105, 179); stroke-opacity: 0.4;"><title>1</title></path><path class="link" d="M637.25,62.22222222222224C740.125,62.22222222222224 740.125,57.22222222222225 843,57.22222222222225" style="stroke-width: 7.777777777777778px; fill: none; stroke: rgb(191, 105, 179); stroke-opacity: 0.4;"><title>1</title></path><path class="link" d="M637.25,54.44444444444447C740.125,54.44444444444447 740.125,39.44444444444447 843,39.44444444444447" style="stroke-width: 7.777777777777778px; fill: none; stroke: rgb(191, 105, 179); stroke-opacity: 0.4;"><title>1</title></path><path class="link" d="M637.25,38.888888888888914C740.125,38.888888888888914 740.125,3.8888888888889173 843,3.8888888888889173" style="stroke-width: 7.777777777777778px; fill: none; stroke: rgb(191, 105, 179); stroke-opacity: 0.4;"><title>1</title></path><path class="link" d="M637.25,203.33333333333334C740.125,203.33333333333334 740.125,207.2222222222222 843,207.2222222222222" style="stroke-width: 7.777777777777778px; fill: none; stroke: rgb(191, 105, 142); stroke-opacity: 0.4;"><title>1</title></path><path class="link" d="M637.25,211.11111111111111C740.125,211.11111111111111 740.125,266.1111111111111 843,266.1111111111111" style="stroke-width: 7.777777777777778px; fill: none; stroke: rgb(191, 105, 142); stroke-opacity: 0.4;"><title>1</title></path><path class="link" d="M637.25,218.88888888888889C740.125,218.88888888888889 740.125,322.7777777777777 843,322.7777777777777" style="stroke-width: 7.777777777777778px; fill: none; stroke: rgb(191, 105, 142); stroke-opacity: 0.4;"><title>1</title></path><path class="link" d="M637.25,303.3333333333333C740.125,303.3333333333333 740.125,289.4444444444444 843,289.4444444444444" style="stroke-width: 7.777777777777778px; fill: none; stroke: rgb(130, 191, 105); stroke-opacity: 0.4;"><title>1</title></path><path class="link" d="M637.25,311.1111111111111C740.125,311.1111111111111 740.125,346.1111111111111 843,346.1111111111111" style="stroke-width: 7.777777777777778px; fill: none; stroke: rgb(130, 191, 105); stroke-opacity: 0.4;"><title>1</title></path></g><g><g class="node" transform="translate(0,70)"><rect height="210" width="5"><title>ONLINE27</title></rect><text x="11" y="105" dy=".35em" text-anchor="start" style="font-size: 11px; font-family: Arial, Helvetica; pointer-events: none;">ONLINE</text></g><g class="node" transform="translate(843,53.333333333333364)"><rect height="7.777777777777778" width="5" style="fill: rgb(102, 102, 102);"><title>Annette Richards1</title></rect><text x="-6" y="3.888888888888889" dy=".35em" text-anchor="end" style="font-size: 11px; font-family: Arial, Helvetica; pointer-events: none;">Annette Richards</text></g><g class="node" transform="translate(843,35.555555555555586)"><rect height="7.777777777777778" width="5" style="fill: rgb(102, 102, 102);"><title>Chris Mesiku1</title></rect><text x="-6" y="3.888888888888889" dy=".35em" text-anchor="end" style="font-size: 11px; font-family: Arial, Helvetica; pointer-events: none;">Chris Mesiku</text></g><g class="node" transform="translate(843,17.777777777777807)"><rect height="7.777777777777778" width="5" style="fill: rgb(102, 102, 102);"><title>Emilian Roman1</title></rect><text x="-6" y="3.888888888888889" dy=".35em" text-anchor="end" style="font-size: 11px; font-family: Arial, Helvetica; pointer-events: none;">Emilian Roman</text></g><g class="node" transform="translate(843,203.33333333333331)"><rect height="7.777777777777778" width="5" style="fill: rgb(102, 102, 102);"><title>Eric Maujean1</title></rect><text x="-6" y="3.888888888888889" dy=".35em" text-anchor="end" style="font-size: 11px; font-family: Arial, Helvetica; pointer-events: none;">Eric Maujean</text></g><g class="node" transform="translate(843,254.4444444444444)"><rect height="38.888888888888886" width="5" style="fill: rgb(102, 102, 102);"><title>Frank Maio5</title></rect><text x="-6" y="19.444444444444443" dy=".35em" text-anchor="end" style="font-size: 11px; font-family: Arial, Helvetica; pointer-events: none;">Frank Maio</text></g><g class="node" transform="translate(843,303.33333333333326)"><rect height="46.666666666666664" width="5" style="fill: rgb(102, 102, 102);"><title>Gavin Tomlins6</title></rect><text x="-6" y="23.333333333333332" dy=".35em" text-anchor="end" style="font-size: 11px; font-family: Arial, Helvetica; pointer-events: none;">Gavin Tomlins</text></g><g class="node" transform="translate(843,177.77777777777777)"><rect height="15.555555555555555" width="5" style="fill: rgb(102, 102, 102);"><title>James Cox2</title></rect><text x="-6" y="7.777777777777778" dy=".35em" text-anchor="end" style="font-size: 11px; font-family: Arial, Helvetica; pointer-events: none;">James Cox</text></g><g class="node" transform="translate(843,142.22222222222223)"><rect height="7.777777777777778" width="5" style="fill: rgb(102, 102, 102);"><title>JANINE GIBSON1</title></rect><text x="-6" y="3.888888888888889" dy=".35em" text-anchor="end" style="font-size: 11px; font-family: Arial, Helvetica; pointer-events: none;">JANINE GIBSON</text></g><g class="node" transform="translate(843,160)"><rect height="7.777777777777778" width="5" style="fill: rgb(102, 102, 102);"><title>Leo Lai1</title></rect><text x="-6" y="3.888888888888889" dy=".35em" text-anchor="end" style="font-size: 11px; font-family: Arial, Helvetica; pointer-events: none;">Leo Lai</text></g><g class="node" transform="translate(843,124.44444444444446)"><rect height="7.777777777777778" width="5" style="fill: rgb(102, 102, 102);"><title>Mike Power1</title></rect><text x="-6" y="3.888888888888889" dy=".35em" text-anchor="end" style="font-size: 11px; font-family: Arial, Helvetica; pointer-events: none;">Mike Power</text></g><g class="node" transform="translate(843,106.66666666666669)"><rect height="7.777777777777778" width="5" style="fill: rgb(102, 102, 102);"><title>Nick Brown1</title></rect><text x="-6" y="3.888888888888889" dy=".35em" text-anchor="end" style="font-size: 11px; font-family: Arial, Helvetica; pointer-events: none;">Nick Brown</text></g><g class="node" transform="translate(843,88.88888888888891)"><rect height="7.777777777777778" width="5" style="fill: rgb(102, 102, 102);"><title>River Paul1</title></rect><text x="-6" y="3.888888888888889" dy=".35em" text-anchor="end" style="font-size: 11px; font-family: Arial, Helvetica; pointer-events: none;">River Paul</text></g><g class="node" transform="translate(843,71.11111111111114)"><rect height="7.777777777777778" width="5" style="fill: rgb(102, 102, 102);"><title>Ryan Dawson1</title></rect><text x="-6" y="3.888888888888889" dy=".35em" text-anchor="end" style="font-size: 11px; font-family: Arial, Helvetica; pointer-events: none;">Ryan Dawson</text></g><g class="node" transform="translate(843,2.842170943040401e-14)"><rect height="7.777777777777778" width="5" style="fill: rgb(102, 102, 102);"><title>Shane Tennett1</title></rect><text x="-6" y="3.888888888888889" dy=".35em" text-anchor="end" style="font-size: 11px; font-family: Arial, Helvetica; pointer-events: none;">Shane Tennett</text></g><g class="node" transform="translate(843,221.1111111111111)"><rect height="23.333333333333332" width="5" style="fill: rgb(102, 102, 102);"><title>Yao Wei aka Kim Tsui3</title></rect><text x="-6" y="11.666666666666666" dy=".35em" text-anchor="end" style="font-size: 11px; font-family: Arial, Helvetica; pointer-events: none;">Yao Wei aka Kim Tsui</text></g><g class="node" transform="translate(421.5,83.33333333333333)"><rect height="54.44444444444444" width="5"><title>Data7</title></rect><text x="11" y="27.22222222222222" dy=".35em" text-anchor="start" style="font-size: 11px; font-family: Arial, Helvetica; pointer-events: none;">Data</text></g><g class="node" transform="translate(421.5,253.33333333333331)"><rect height="46.666666666666664" width="5"><title>Data Science6</title></rect><text x="11" y="23.333333333333332" dy=".35em" text-anchor="start" style="font-size: 11px; font-family: Arial, Helvetica; pointer-events: none;">Data Science</text></g><g class="node" transform="translate(421.5,50)"><rect height="23.333333333333332" width="5"><title>Policy3</title></rect><text x="11" y="11.666666666666666" dy=".35em" text-anchor="start" style="font-size: 11px; font-family: Arial, Helvetica; pointer-events: none;">Policy</text></g><g class="node" transform="translate(421.5,196.66666666666666)"><rect height="46.666666666666664" width="5"><title>Strategy6</title></rect><text x="11" y="23.333333333333332" dy=".35em" text-anchor="start" style="font-size: 11px; font-family: Arial, Helvetica; pointer-events: none;">Strategy</text></g><g class="node" transform="translate(421.5,147.77777777777777)"><rect height="38.888888888888886" width="5"><title>Technical5</title></rect><text x="11" y="19.444444444444443" dy=".35em" text-anchor="start" style="font-size: 11px; font-family: Arial, Helvetica; pointer-events: none;">Technical</text></g><g class="node" transform="translate(632.25,35.00000000000003)"><rect height="31.11111111111111" width="5"><title>Any4</title></rect><text x="-6" y="15.555555555555555" dy=".35em" text-anchor="end" style="font-size: 11px; font-family: Arial, Helvetica; pointer-events: none;">Any</text></g><g class="node" transform="translate(632.25,199.44444444444446)"><rect height="23.333333333333332" width="5"><title>Data science/stats3</title></rect><text x="-6" y="11.666666666666666" dy=".35em" text-anchor="end" style="font-size: 11px; font-family: Arial, Helvetica; pointer-events: none;">Data science/stats</text></g><g class="node" transform="translate(632.25,76.11111111111114)"><rect height="54.44444444444444" width="5"><title>Datasets7</title></rect><text x="-6" y="27.22222222222222" dy=".35em" text-anchor="end" style="font-size: 11px; font-family: Arial, Helvetica; pointer-events: none;">Datasets</text></g><g class="node" transform="translate(632.25,266.1111111111111)"><rect height="23.333333333333332" width="5"><title>presentations3</title></rect><text x="-6" y="11.666666666666666" dy=".35em" text-anchor="end" style="font-size: 11px; font-family: Arial, Helvetica; pointer-events: none;">presentations</text></g><g class="node" transform="translate(632.25,232.77777777777777)"><rect height="23.333333333333332" width="5"><title>product development3</title></rect><text x="-6" y="11.666666666666666" dy=".35em" text-anchor="end" style="font-size: 11px; font-family: Arial, Helvetica; pointer-events: none;">product development</text></g><g class="node" transform="translate(632.25,173.8888888888889)"><rect height="15.555555555555555" width="5"><title>Strategy2</title></rect><text x="-6" y="7.777777777777778" dy=".35em" text-anchor="end" style="font-size: 11px; font-family: Arial, Helvetica; pointer-events: none;">Strategy</text></g><g class="node" transform="translate(632.25,140.5555555555556)"><rect height="23.333333333333332" width="5"><title>Systems/APIs3</title></rect><text x="-6" y="11.666666666666666" dy=".35em" text-anchor="end" style="font-size: 11px; font-family: Arial, Helvetica; pointer-events: none;">Systems/APIs</text></g><g class="node" transform="translate(632.25,299.4444444444444)"><rect height="15.555555555555555" width="5"><title>Technical2</title></rect><text x="-6" y="7.777777777777778" dy=".35em" text-anchor="end" style="font-size: 11px; font-family: Arial, Helvetica; pointer-events: none;">Technical</text></g><g class="node" transform="translate(210.75,152.77777777777777)"><rect height="132.22222222222223" width="5"><title>Coach17</title></rect><text x="11" y="66.11111111111111" dy=".35em" text-anchor="start" style="font-size: 11px; font-family: Arial, Helvetica; pointer-events: none;">Coach</text></g><g class="node" transform="translate(210.75,65)"><rect height="77.77777777777777" width="5"><title>Mentor10</title></rect><text x="11" y="38.888888888888886" dy=".35em" text-anchor="start" style="font-size: 11px; font-family: Arial, Helvetica; pointer-events: none;">Mentor</text></g></g></g></svg>
