<svg width="848" height="770" xmlns="http://www.w3.org/2000/svg" version="1.1"><g transform="translate(0,10)"><g><path class="link" d="M5,502.1794871794872C107.875,502.1794871794872 107.875,487.1794871794872 210.75,487.1794871794872" style="stroke-width: 225.64102564102566px; fill: none; stroke: rgb(191, 105, 105); stroke-opacity: 0.4;"><title>40</title></path><path class="link" d="M215.75,436.4102564102564C318.625,436.4102564102564 318.625,440.7692307692308 421.5,440.7692307692308" style="stroke-width: 124.10256410256412px; fill: none; stroke: rgb(141, 191, 105); stroke-opacity: 0.4;"><title>22</title></path><path class="link" d="M215.75,549.2307692307693C318.625,549.2307692307693 318.625,569.2307692307693 421.5,569.2307692307693" style="stroke-width: 101.53846153846155px; fill: none; stroke: rgb(141, 191, 105); stroke-opacity: 0.4;"><title>18</title></path><path class="link" d="M5,341.4102564102564C107.875,341.4102564102564 107.875,265.64102564102564 210.75,265.64102564102564" style="stroke-width: 95.8974358974359px; fill: none; stroke: rgb(191, 105, 105); stroke-opacity: 0.4;"><title>17</title></path><path class="link" d="M215.75,231.79487179487182C318.625,231.79487179487182 318.625,231.79487179487177 421.5,231.79487179487177" style="stroke-width: 73.33333333333334px; fill: none; stroke: rgb(114, 191, 105); stroke-opacity: 0.4;"><title>13</title></path><path class="link" d="M5,184.48717948717947C107.875,184.48717948717947 107.875,189.48717948717947 210.75,189.48717948717947" style="stroke-width: 56.410256410256416px; fill: none; stroke: rgb(191, 186, 105); stroke-opacity: 0.4;"><title>10</title></path><path class="link" d="M426.5,591.7948717948718C529.375,591.7948717948718 529.375,601.7948717948717 632.25,601.7948717948717" style="stroke-width: 56.410256410256416px; fill: none; stroke: rgb(105, 191, 123); stroke-opacity: 0.4;"><title>10</title></path><path class="link" d="M215.75,348.974358974359C318.625,348.974358974359 318.625,303.8461538461538 421.5,303.8461538461538" style="stroke-width: 50.769230769230774px; fill: none; stroke: rgb(141, 191, 105); stroke-opacity: 0.4;"><title>9</title></path><path class="link" d="M5,260.89743589743586C107.875,260.89743589743586 107.875,351.79487179487177 210.75,351.79487179487177" style="stroke-width: 45.12820512820513px; fill: none; stroke: rgb(191, 132, 105); stroke-opacity: 0.4;"><title>8</title></path><path class="link" d="M215.75,288.2051282051282C318.625,288.2051282051282 318.625,358.97435897435895 421.5,358.97435897435895" style="stroke-width: 39.48717948717949px; fill: none; stroke: rgb(114, 191, 105); stroke-opacity: 0.4;"><title>7</title></path><path class="link" d="M215.75,181.02564102564105C318.625,181.02564102564105 318.625,171.02564102564102 421.5,171.02564102564102" style="stroke-width: 28.205128205128208px; fill: none; stroke: rgb(114, 191, 105); stroke-opacity: 0.4;"><title>5</title></path><path class="link" d="M426.5,543.8461538461538C529.375,543.8461538461538 529.375,483.0769230769231 632.25,483.0769230769231" style="stroke-width: 28.205128205128208px; fill: none; stroke: rgb(105, 191, 123); stroke-opacity: 0.4;"><title>5</title></path><path class="link" d="M426.5,454.87179487179486C529.375,454.87179487179486 529.375,454.87179487179486 632.25,454.87179487179486" style="stroke-width: 28.205128205128208px; fill: none; stroke: rgb(105, 191, 150); stroke-opacity: 0.4;"><title>5</title></path><path class="link" d="M426.5,409.7435897435897C529.375,409.7435897435897 529.375,344.6153846153846 632.25,344.6153846153846" style="stroke-width: 28.205128205128208px; fill: none; stroke: rgb(105, 191, 150); stroke-opacity: 0.4;"><title>5</title></path><path class="link" d="M426.5,353.3333333333333C529.375,353.3333333333333 529.375,206.15384615384616 632.25,206.15384615384616" style="stroke-width: 28.205128205128208px; fill: none; stroke: rgb(105, 191, 150); stroke-opacity: 0.4;"><title>5</title></path><path class="link" d="M426.5,381.53846153846155C529.375,381.53846153846155 529.375,283.84615384615387 632.25,283.84615384615387" style="stroke-width: 28.205128205128208px; fill: none; stroke: rgb(105, 191, 150); stroke-opacity: 0.4;"><title>5</title></path><path class="link" d="M215.75,158.46153846153845C318.625,158.46153846153845 318.625,138.46153846153842 421.5,138.46153846153842" style="stroke-width: 16.923076923076923px; fill: none; stroke: rgb(114, 191, 105); stroke-opacity: 0.4;"><title>3</title></path><path class="link" d="M426.5,494.35897435897436C529.375,494.35897435897436 529.375,565.1282051282051 632.25,565.1282051282051" style="stroke-width: 16.923076923076923px; fill: none; stroke: rgb(105, 191, 150); stroke-opacity: 0.4;"><title>3</title></path><path class="link" d="M426.5,432.3076923076923C529.375,432.3076923076923 529.375,399.7435897435897 632.25,399.7435897435897" style="stroke-width: 16.923076923076923px; fill: none; stroke: rgb(105, 191, 150); stroke-opacity: 0.4;"><title>3</title></path><path class="link" d="M426.5,477.43589743589746C529.375,477.43589743589746 529.375,515.6410256410256 632.25,515.6410256410256" style="stroke-width: 16.923076923076923px; fill: none; stroke: rgb(105, 191, 150); stroke-opacity: 0.4;"><title>3</title></path><path class="link" d="M426.5,209.2307692307692C529.375,209.2307692307692 529.375,172.3076923076923 632.25,172.3076923076923" style="stroke-width: 16.923076923076923px; fill: none; stroke: rgb(105, 191, 177); stroke-opacity: 0.4;"><title>3</title></path><path class="link" d="M426.5,226.15384615384613C529.375,226.15384615384613 529.375,250 632.25,250" style="stroke-width: 16.923076923076923px; fill: none; stroke: rgb(105, 191, 177); stroke-opacity: 0.4;"><title>3</title></path><path class="link" d="M5,140.64102564102564C107.875,140.64102564102564 107.875,155.64102564102564 210.75,155.64102564102564" style="stroke-width: 11.282051282051283px; fill: none; stroke: rgb(191, 159, 105); stroke-opacity: 0.4;"><title>2</title></path><path class="link" d="M426.5,524.1025641025641C529.375,524.1025641025641 529.375,413.84615384615387 632.25,413.84615384615387" style="stroke-width: 11.282051282051283px; fill: none; stroke: rgb(105, 191, 123); stroke-opacity: 0.4;"><title>2</title></path><path class="link" d="M426.5,262.8205128205128C529.375,262.8205128205128 529.375,545.3846153846154 632.25,545.3846153846154" style="stroke-width: 11.282051282051283px; fill: none; stroke: rgb(105, 191, 177); stroke-opacity: 0.4;"><title>2</title></path><path class="link" d="M426.5,251.53846153846152C529.375,251.53846153846152 529.375,435.12820512820514 632.25,435.12820512820514" style="stroke-width: 11.282051282051283px; fill: none; stroke: rgb(105, 191, 177); stroke-opacity: 0.4;"><title>2</title></path><path class="link" d="M426.5,240.25641025641022C529.375,240.25641025641022 529.375,380 632.25,380" style="stroke-width: 11.282051282051283px; fill: none; stroke: rgb(105, 191, 177); stroke-opacity: 0.4;"><title>2</title></path><path class="link" d="M426.5,312.30769230769226C529.375,312.30769230769226 529.375,324.87179487179486 632.25,324.87179487179486" style="stroke-width: 11.282051282051283px; fill: none; stroke: rgb(105, 123, 191); stroke-opacity: 0.4;"><title>2</title></path><path class="link" d="M426.5,289.7435897435897C529.375,289.7435897435897 529.375,186.4102564102564 632.25,186.4102564102564" style="stroke-width: 11.282051282051283px; fill: none; stroke: rgb(105, 123, 191); stroke-opacity: 0.4;"><title>2</title></path><path class="link" d="M426.5,301.025641025641C529.375,301.025641025641 529.375,264.1025641025641 632.25,264.1025641025641" style="stroke-width: 11.282051282051283px; fill: none; stroke: rgb(105, 123, 191); stroke-opacity: 0.4;"><title>2</title></path><path class="link" d="M5,225.5128205128205C107.875,225.5128205128205 107.875,326.4102564102564 210.75,326.4102564102564" style="stroke-width: 5.641025641025641px; fill: none; stroke: rgb(168, 191, 105); stroke-opacity: 0.4;"><title>1</title></path><path class="link" d="M215.75,310.7692307692308C318.625,310.7692307692308 318.625,515.6410256410256 421.5,515.6410256410256" style="stroke-width: 5.641025641025641px; fill: none; stroke: rgb(114, 191, 105); stroke-opacity: 0.4;"><title>1</title></path><path class="link" d="M426.5,560.7692307692307C529.375,560.7692307692307 529.375,526.9230769230769 632.25,526.9230769230769" style="stroke-width: 5.641025641025641px; fill: none; stroke: rgb(105, 191, 123); stroke-opacity: 0.4;"><title>1</title></path><path class="link" d="M426.5,515.6410256410256C529.375,515.6410256410256 529.375,139.74358974358975 632.25,139.74358974358975" style="stroke-width: 5.641025641025641px; fill: none; stroke: rgb(105, 191, 123); stroke-opacity: 0.4;"><title>1</title></path><path class="link" d="M426.5,197.94871794871793C529.375,197.94871794871793 529.375,128.46153846153845 632.25,128.46153846153845" style="stroke-width: 5.641025641025641px; fill: none; stroke: rgb(105, 191, 177); stroke-opacity: 0.4;"><title>1</title></path><path class="link" d="M426.5,144.10256410256406C529.375,144.10256410256406 529.375,310.7692307692308 632.25,310.7692307692308" style="stroke-width: 5.641025641025641px; fill: none; stroke: rgb(105, 177, 191); stroke-opacity: 0.4;"><title>1</title></path><path class="link" d="M426.5,132.8205128205128C529.375,132.8205128205128 529.375,155.3846153846154 632.25,155.3846153846154" style="stroke-width: 5.641025641025641px; fill: none; stroke: rgb(105, 177, 191); stroke-opacity: 0.4;"><title>1</title></path><path class="link" d="M426.5,138.46153846153842C529.375,138.46153846153842 529.375,233.0769230769231 632.25,233.0769230769231" style="stroke-width: 5.641025641025641px; fill: none; stroke: rgb(105, 177, 191); stroke-opacity: 0.4;"><title>1</title></path><path class="link" d="M426.5,182.3076923076923C529.375,182.3076923076923 529.375,371.53846153846155 632.25,371.53846153846155" style="stroke-width: 5.641025641025641px; fill: none; stroke: rgb(105, 150, 191); stroke-opacity: 0.4;"><title>1</title></path><path class="link" d="M426.5,159.74358974358972C529.375,159.74358974358972 529.375,122.82051282051282 632.25,122.82051282051282" style="stroke-width: 5.641025641025641px; fill: none; stroke: rgb(105, 150, 191); stroke-opacity: 0.4;"><title>1</title></path><path class="link" d="M426.5,176.66666666666666C529.375,176.66666666666666 529.375,316.4102564102564 632.25,316.4102564102564" style="stroke-width: 5.641025641025641px; fill: none; stroke: rgb(105, 150, 191); stroke-opacity: 0.4;"><title>1</title></path><path class="link" d="M426.5,165.38461538461536C529.375,165.38461538461536 529.375,161.02564102564102 632.25,161.02564102564102" style="stroke-width: 5.641025641025641px; fill: none; stroke: rgb(105, 150, 191); stroke-opacity: 0.4;"><title>1</title></path><path class="link" d="M426.5,171.025641025641C529.375,171.025641025641 529.375,238.71794871794873 632.25,238.71794871794873" style="stroke-width: 5.641025641025641px; fill: none; stroke: rgb(105, 150, 191); stroke-opacity: 0.4;"><title>1</title></path><path class="link" d="M426.5,320.7692307692308C529.375,320.7692307692308 529.375,388.46153846153845 632.25,388.46153846153845" style="stroke-width: 5.641025641025641px; fill: none; stroke: rgb(105, 123, 191); stroke-opacity: 0.4;"><title>1</title></path><path class="link" d="M426.5,281.28205128205127C529.375,281.28205128205127 529.375,134.1025641025641 632.25,134.1025641025641" style="stroke-width: 5.641025641025641px; fill: none; stroke: rgb(105, 123, 191); stroke-opacity: 0.4;"><title>1</title></path><path class="link" d="M426.5,326.4102564102564C529.375,326.4102564102564 529.375,553.8461538461538 632.25,553.8461538461538" style="stroke-width: 5.641025641025641px; fill: none; stroke: rgb(105, 123, 191); stroke-opacity: 0.4;"><title>1</title></path><path class="link" d="M637.25,615.8974358974359C740.125,615.8974358974359 740.125,653.3333333333333 843,653.3333333333333" style="stroke-width: 5.641025641025641px; fill: none; stroke: rgb(114, 105, 191); stroke-opacity: 0.4;"><title>1</title></path><path class="link" d="M637.25,593.3333333333334C740.125,593.3333333333334 740.125,590.7692307692307 843,590.7692307692307" style="stroke-width: 5.641025641025641px; fill: none; stroke: rgb(114, 105, 191); stroke-opacity: 0.4;"><title>1</title></path><path class="link" d="M637.25,553.8461538461538C740.125,553.8461538461538 740.125,431.7948717948718 843,431.7948717948718" style="stroke-width: 5.641025641025641px; fill: none; stroke: rgb(114, 105, 191); stroke-opacity: 0.4;"><title>1</title></path><path class="link" d="M637.25,627.1794871794872C740.125,627.1794871794872 740.125,684.6153846153845 843,684.6153846153845" style="stroke-width: 5.641025641025641px; fill: none; stroke: rgb(114, 105, 191); stroke-opacity: 0.4;"><title>1</title></path><path class="link" d="M637.25,621.5384615384615C740.125,621.5384615384615 740.125,668.9743589743589 843,668.9743589743589" style="stroke-width: 5.641025641025641px; fill: none; stroke: rgb(114, 105, 191); stroke-opacity: 0.4;"><title>1</title></path><path class="link" d="M637.25,610.2564102564103C740.125,610.2564102564103 740.125,637.6923076923076 843,637.6923076923076" style="stroke-width: 5.641025641025641px; fill: none; stroke: rgb(114, 105, 191); stroke-opacity: 0.4;"><title>1</title></path><path class="link" d="M637.25,604.6153846153846C740.125,604.6153846153846 740.125,622.051282051282 843,622.051282051282" style="stroke-width: 5.641025641025641px; fill: none; stroke: rgb(114, 105, 191); stroke-opacity: 0.4;"><title>1</title></path><path class="link" d="M637.25,598.974358974359C740.125,598.974358974359 740.125,606.4102564102564 843,606.4102564102564" style="stroke-width: 5.641025641025641px; fill: none; stroke: rgb(114, 105, 191); stroke-opacity: 0.4;"><title>1</title></path><path class="link" d="M637.25,559.4871794871794C740.125,559.4871794871794 740.125,474.35897435897436 843,474.35897435897436" style="stroke-width: 5.641025641025641px; fill: none; stroke: rgb(114, 105, 191); stroke-opacity: 0.4;"><title>1</title></path><path class="link" d="M637.25,576.4102564102564C740.125,576.4102564102564 740.125,538.2051282051282 843,538.2051282051282" style="stroke-width: 5.641025641025641px; fill: none; stroke: rgb(114, 105, 191); stroke-opacity: 0.4;"><title>1</title></path><path class="link" d="M637.25,587.6923076923076C740.125,587.6923076923076 740.125,575.1282051282051 843,575.1282051282051" style="stroke-width: 5.641025641025641px; fill: none; stroke: rgb(114, 105, 191); stroke-opacity: 0.4;"><title>1</title></path><path class="link" d="M637.25,570.7692307692307C740.125,570.7692307692307 740.125,516.9230769230769 843,516.9230769230769" style="stroke-width: 5.641025641025641px; fill: none; stroke: rgb(114, 105, 191); stroke-opacity: 0.4;"><title>1</title></path><path class="link" d="M637.25,565.1282051282051C740.125,565.1282051282051 740.125,495.64102564102564 843,495.64102564102564" style="stroke-width: 5.641025641025641px; fill: none; stroke: rgb(114, 105, 191); stroke-opacity: 0.4;"><title>1</title></path><path class="link" d="M637.25,542.5641025641025C740.125,542.5641025641025 740.125,344.1025641025641 843,344.1025641025641" style="stroke-width: 5.641025641025641px; fill: none; stroke: rgb(114, 105, 191); stroke-opacity: 0.4;"><title>1</title></path><path class="link" d="M637.25,582.051282051282C740.125,582.051282051282 740.125,559.4871794871794 843,559.4871794871794" style="stroke-width: 5.641025641025641px; fill: none; stroke: rgb(114, 105, 191); stroke-opacity: 0.4;"><title>1</title></path><path class="link" d="M637.25,548.2051282051282C740.125,548.2051282051282 740.125,387.94871794871796 843,387.94871794871796" style="stroke-width: 5.641025641025641px; fill: none; stroke: rgb(114, 105, 191); stroke-opacity: 0.4;"><title>1</title></path><path class="link" d="M637.25,449.2307692307692C740.125,449.2307692307692 740.125,311.53846153846155 843,311.53846153846155" style="stroke-width: 5.641025641025641px; fill: none; stroke: rgb(141, 105, 191); stroke-opacity: 0.4;"><title>1</title></path><path class="link" d="M637.25,460.51282051282055C740.125,460.51282051282055 740.125,426.15384615384613 843,426.15384615384613" style="stroke-width: 5.641025641025641px; fill: none; stroke: rgb(141, 105, 191); stroke-opacity: 0.4;"><title>1</title></path><path class="link" d="M637.25,443.5897435897436C740.125,443.5897435897436 740.125,273.33333333333337 843,273.33333333333337" style="stroke-width: 5.641025641025641px; fill: none; stroke: rgb(141, 105, 191); stroke-opacity: 0.4;"><title>1</title></path><path class="link" d="M637.25,437.94871794871796C740.125,437.94871794871796 740.125,240.76923076923083 843,240.76923076923083" style="stroke-width: 5.641025641025641px; fill: none; stroke: rgb(141, 105, 191); stroke-opacity: 0.4;"><title>1</title></path><path class="link" d="M637.25,471.7948717948718C740.125,471.7948717948718 740.125,468.71794871794873 843,468.71794871794873" style="stroke-width: 5.641025641025641px; fill: none; stroke: rgb(141, 105, 191); stroke-opacity: 0.4;"><title>1</title></path><path class="link" d="M637.25,488.71794871794873C740.125,488.71794871794873 740.125,532.5641025641025 843,532.5641025641025" style="stroke-width: 5.641025641025641px; fill: none; stroke: rgb(141, 105, 191); stroke-opacity: 0.4;"><title>1</title></path><path class="link" d="M637.25,466.1538461538462C740.125,466.1538461538462 740.125,447.43589743589746 843,447.43589743589746" style="stroke-width: 5.641025641025641px; fill: none; stroke: rgb(141, 105, 191); stroke-opacity: 0.4;"><title>1</title></path><path class="link" d="M637.25,483.0769230769231C740.125,483.0769230769231 740.125,511.28205128205127 843,511.28205128205127" style="stroke-width: 5.641025641025641px; fill: none; stroke: rgb(141, 105, 191); stroke-opacity: 0.4;"><title>1</title></path><path class="link" d="M637.25,477.43589743589746C740.125,477.43589743589746 740.125,490 843,490" style="stroke-width: 5.641025641025641px; fill: none; stroke: rgb(141, 105, 191); stroke-opacity: 0.4;"><title>1</title></path><path class="link" d="M637.25,494.35897435897436C740.125,494.35897435897436 740.125,553.8461538461538 843,553.8461538461538" style="stroke-width: 5.641025641025641px; fill: none; stroke: rgb(141, 105, 191); stroke-opacity: 0.4;"><title>1</title></path><path class="link" d="M637.25,454.87179487179486C740.125,454.87179487179486 740.125,382.30769230769226 843,382.30769230769226" style="stroke-width: 5.641025641025641px; fill: none; stroke: rgb(141, 105, 191); stroke-opacity: 0.4;"><title>1</title></path><path class="link" d="M637.25,432.3076923076923C740.125,432.3076923076923 740.125,208.20512820512826 843,208.20512820512826" style="stroke-width: 5.641025641025641px; fill: none; stroke: rgb(141, 105, 191); stroke-opacity: 0.4;"><title>1</title></path><path class="link" d="M637.25,399.7435897435898C740.125,399.7435897435898 740.125,305.8974358974359 843,305.8974358974359" style="stroke-width: 5.641025641025641px; fill: none; stroke: rgb(168, 105, 191); stroke-opacity: 0.4;"><title>1</title></path><path class="link" d="M637.25,411.02564102564105C740.125,411.02564102564105 740.125,420.5128205128205 843,420.5128205128205" style="stroke-width: 5.641025641025641px; fill: none; stroke: rgb(168, 105, 191); stroke-opacity: 0.4;"><title>1</title></path><path class="link" d="M637.25,416.6666666666667C740.125,416.6666666666667 740.125,463.0769230769231 843,463.0769230769231" style="stroke-width: 5.641025641025641px; fill: none; stroke: rgb(168, 105, 191); stroke-opacity: 0.4;"><title>1</title></path><path class="link" d="M637.25,382.8205128205128C740.125,382.8205128205128 740.125,160.00000000000006 843,160.00000000000006" style="stroke-width: 5.641025641025641px; fill: none; stroke: rgb(168, 105, 191); stroke-opacity: 0.4;"><title>1</title></path><path class="link" d="M637.25,377.1794871794872C740.125,377.1794871794872 740.125,121.79487179487185 843,121.79487179487185" style="stroke-width: 5.641025641025641px; fill: none; stroke: rgb(168, 105, 191); stroke-opacity: 0.4;"><title>1</title></path><path class="link" d="M637.25,371.53846153846155C740.125,371.53846153846155 740.125,29.743589743589805 843,29.743589743589805" style="stroke-width: 5.641025641025641px; fill: none; stroke: rgb(168, 105, 191); stroke-opacity: 0.4;"><title>1</title></path><path class="link" d="M637.25,405.3846153846154C740.125,405.3846153846154 740.125,376.66666666666663 843,376.66666666666663" style="stroke-width: 5.641025641025641px; fill: none; stroke: rgb(168, 105, 191); stroke-opacity: 0.4;"><title>1</title></path><path class="link" d="M637.25,394.1025641025641C740.125,394.1025641025641 740.125,202.5641025641026 843,202.5641025641026" style="stroke-width: 5.641025641025641px; fill: none; stroke: rgb(168, 105, 191); stroke-opacity: 0.4;"><title>1</title></path><path class="link" d="M637.25,388.46153846153845C740.125,388.46153846153845 740.125,175.6410256410257 843,175.6410256410257" style="stroke-width: 5.641025641025641px; fill: none; stroke: rgb(168, 105, 191); stroke-opacity: 0.4;"><title>1</title></path><path class="link" d="M637.25,344.61538461538464C740.125,344.61538461538464 740.125,300.2564102564103 843,300.2564102564103" style="stroke-width: 5.641025641025641px; fill: none; stroke: rgb(105, 191, 177); stroke-opacity: 0.4;"><title>1</title></path><path class="link" d="M637.25,355.8974358974359C740.125,355.8974358974359 740.125,414.87179487179486 843,414.87179487179486" style="stroke-width: 5.641025641025641px; fill: none; stroke: rgb(105, 191, 177); stroke-opacity: 0.4;"><title>1</title></path><path class="link" d="M637.25,316.4102564102564C740.125,316.4102564102564 740.125,83.58974358974365 843,83.58974358974365" style="stroke-width: 5.641025641025641px; fill: none; stroke: rgb(105, 191, 177); stroke-opacity: 0.4;"><title>1</title></path><path class="link" d="M637.25,310.7692307692308C740.125,310.7692307692308 740.125,56.66666666666673 843,56.66666666666673" style="stroke-width: 5.641025641025641px; fill: none; stroke: rgb(105, 191, 177); stroke-opacity: 0.4;"><title>1</title></path><path class="link" d="M637.25,338.974358974359C740.125,338.974358974359 740.125,267.69230769230774 843,267.69230769230774" style="stroke-width: 5.641025641025641px; fill: none; stroke: rgb(105, 191, 177); stroke-opacity: 0.4;"><title>1</title></path><path class="link" d="M637.25,333.3333333333333C740.125,333.3333333333333 740.125,235.12820512820517 843,235.12820512820517" style="stroke-width: 5.641025641025641px; fill: none; stroke: rgb(105, 191, 177); stroke-opacity: 0.4;"><title>1</title></path><path class="link" d="M637.25,327.6923076923077C740.125,327.6923076923077 740.125,154.35897435897442 843,154.35897435897442" style="stroke-width: 5.641025641025641px; fill: none; stroke: rgb(105, 191, 177); stroke-opacity: 0.4;"><title>1</title></path><path class="link" d="M637.25,322.05128205128204C740.125,322.05128205128204 740.125,116.1538461538462 843,116.1538461538462" style="stroke-width: 5.641025641025641px; fill: none; stroke: rgb(105, 191, 177); stroke-opacity: 0.4;"><title>1</title></path><path class="link" d="M637.25,350.2564102564103C740.125,350.2564102564103 740.125,338.46153846153845 843,338.46153846153845" style="stroke-width: 5.641025641025641px; fill: none; stroke: rgb(105, 191, 177); stroke-opacity: 0.4;"><title>1</title></path><path class="link" d="M637.25,200.51282051282053C740.125,200.51282051282053 740.125,288.974358974359 843,288.974358974359" style="stroke-width: 5.641025641025641px; fill: none; stroke: rgb(191, 105, 186); stroke-opacity: 0.4;"><title>1</title></path><path class="link" d="M637.25,217.43589743589746C740.125,217.43589743589746 740.125,403.5897435897436 843,403.5897435897436" style="stroke-width: 5.641025641025641px; fill: none; stroke: rgb(191, 105, 186); stroke-opacity: 0.4;"><title>1</title></path><path class="link" d="M637.25,166.66666666666666C740.125,166.66666666666666 740.125,72.30769230769236 843,72.30769230769236" style="stroke-width: 5.641025641025641px; fill: none; stroke: rgb(191, 105, 186); stroke-opacity: 0.4;"><title>1</title></path><path class="link" d="M637.25,161.02564102564102C740.125,161.02564102564102 740.125,45.384615384615444 843,45.384615384615444" style="stroke-width: 5.641025641025641px; fill: none; stroke: rgb(191, 105, 186); stroke-opacity: 0.4;"><title>1</title></path><path class="link" d="M637.25,194.87179487179486C740.125,194.87179487179486 740.125,256.41025641025647 843,256.41025641025647" style="stroke-width: 5.641025641025641px; fill: none; stroke: rgb(191, 105, 186); stroke-opacity: 0.4;"><title>1</title></path><path class="link" d="M637.25,189.23076923076923C740.125,189.23076923076923 740.125,223.8461538461539 843,223.8461538461539" style="stroke-width: 5.641025641025641px; fill: none; stroke: rgb(191, 105, 186); stroke-opacity: 0.4;"><title>1</title></path><path class="link" d="M637.25,177.94871794871796C740.125,177.94871794871796 740.125,143.07692307692312 843,143.07692307692312" style="stroke-width: 5.641025641025641px; fill: none; stroke: rgb(191, 105, 186); stroke-opacity: 0.4;"><title>1</title></path><path class="link" d="M637.25,172.30769230769232C740.125,172.30769230769232 740.125,104.87179487179492 843,104.87179487179492" style="stroke-width: 5.641025641025641px; fill: none; stroke: rgb(191, 105, 186); stroke-opacity: 0.4;"><title>1</title></path><path class="link" d="M637.25,206.15384615384616C740.125,206.15384615384616 740.125,327.1794871794872 843,327.1794871794872" style="stroke-width: 5.641025641025641px; fill: none; stroke: rgb(191, 105, 186); stroke-opacity: 0.4;"><title>1</title></path><path class="link" d="M637.25,155.3846153846154C740.125,155.3846153846154 740.125,2.8205128205128775 843,2.8205128205128775" style="stroke-width: 5.641025641025641px; fill: none; stroke: rgb(191, 105, 186); stroke-opacity: 0.4;"><title>1</title></path><path class="link" d="M637.25,211.7948717948718C740.125,211.7948717948718 740.125,365.38461538461536 843,365.38461538461536" style="stroke-width: 5.641025641025641px; fill: none; stroke: rgb(191, 105, 186); stroke-opacity: 0.4;"><title>1</title></path><path class="link" d="M637.25,183.5897435897436C740.125,183.5897435897436 740.125,191.28205128205133 843,191.28205128205133" style="stroke-width: 5.641025641025641px; fill: none; stroke: rgb(191, 105, 186); stroke-opacity: 0.4;"><title>1</title></path><path class="link" d="M637.25,278.20512820512823C740.125,278.20512820512823 740.125,294.61538461538464 843,294.61538461538464" style="stroke-width: 5.641025641025641px; fill: none; stroke: rgb(191, 105, 159); stroke-opacity: 0.4;"><title>1</title></path><path class="link" d="M637.25,295.12820512820514C740.125,295.12820512820514 740.125,409.2307692307692 843,409.2307692307692" style="stroke-width: 5.641025641025641px; fill: none; stroke: rgb(191, 105, 159); stroke-opacity: 0.4;"><title>1</title></path><path class="link" d="M637.25,244.35897435897436C740.125,244.35897435897436 740.125,77.948717948718 843,77.948717948718" style="stroke-width: 5.641025641025641px; fill: none; stroke: rgb(191, 105, 159); stroke-opacity: 0.4;"><title>1</title></path><path class="link" d="M637.25,238.71794871794873C740.125,238.71794871794873 740.125,51.025641025641086 843,51.025641025641086" style="stroke-width: 5.641025641025641px; fill: none; stroke: rgb(191, 105, 159); stroke-opacity: 0.4;"><title>1</title></path><path class="link" d="M637.25,272.5641025641026C740.125,272.5641025641026 740.125,262.0512820512821 843,262.0512820512821" style="stroke-width: 5.641025641025641px; fill: none; stroke: rgb(191, 105, 159); stroke-opacity: 0.4;"><title>1</title></path><path class="link" d="M637.25,266.92307692307696C740.125,266.92307692307696 740.125,229.48717948717953 843,229.48717948717953" style="stroke-width: 5.641025641025641px; fill: none; stroke: rgb(191, 105, 159); stroke-opacity: 0.4;"><title>1</title></path><path class="link" d="M637.25,255.64102564102566C740.125,255.64102564102566 740.125,148.71794871794876 843,148.71794871794876" style="stroke-width: 5.641025641025641px; fill: none; stroke: rgb(191, 105, 159); stroke-opacity: 0.4;"><title>1</title></path><path class="link" d="M637.25,250.00000000000003C740.125,250.00000000000003 740.125,110.51282051282057 843,110.51282051282057" style="stroke-width: 5.641025641025641px; fill: none; stroke: rgb(191, 105, 159); stroke-opacity: 0.4;"><title>1</title></path><path class="link" d="M637.25,283.84615384615387C740.125,283.84615384615387 740.125,332.8205128205128 843,332.8205128205128" style="stroke-width: 5.641025641025641px; fill: none; stroke: rgb(191, 105, 159); stroke-opacity: 0.4;"><title>1</title></path><path class="link" d="M637.25,233.0769230769231C740.125,233.0769230769231 740.125,8.461538461538519 843,8.461538461538519" style="stroke-width: 5.641025641025641px; fill: none; stroke: rgb(191, 105, 159); stroke-opacity: 0.4;"><title>1</title></path><path class="link" d="M637.25,289.4871794871795C740.125,289.4871794871795 740.125,371.025641025641 843,371.025641025641" style="stroke-width: 5.641025641025641px; fill: none; stroke: rgb(191, 105, 159); stroke-opacity: 0.4;"><title>1</title></path><path class="link" d="M637.25,261.2820512820513C740.125,261.2820512820513 740.125,196.92307692307696 843,196.92307692307696" style="stroke-width: 5.641025641025641px; fill: none; stroke: rgb(191, 105, 159); stroke-opacity: 0.4;"><title>1</title></path><path class="link" d="M637.25,526.9230769230769C740.125,526.9230769230769 740.125,747.1794871794871 843,747.1794871794871" style="stroke-width: 5.641025641025641px; fill: none; stroke: rgb(191, 105, 132); stroke-opacity: 0.4;"><title>1</title></path><path class="link" d="M637.25,521.2820512820513C740.125,521.2820512820513 740.125,731.5384615384614 843,731.5384615384614" style="stroke-width: 5.641025641025641px; fill: none; stroke: rgb(191, 105, 132); stroke-opacity: 0.4;"><title>1</title></path><path class="link" d="M637.25,515.6410256410256C740.125,515.6410256410256 740.125,715.8974358974358 843,715.8974358974358" style="stroke-width: 5.641025641025641px; fill: none; stroke: rgb(191, 105, 132); stroke-opacity: 0.4;"><title>1</title></path><path class="link" d="M637.25,510C740.125,510 740.125,700.2564102564102 843,700.2564102564102" style="stroke-width: 5.641025641025641px; fill: none; stroke: rgb(191, 105, 132); stroke-opacity: 0.4;"><title>1</title></path><path class="link" d="M637.25,134.1025641025641C740.125,134.1025641025641 740.125,137.4358974358975 843,137.4358974358975" style="stroke-width: 5.641025641025641px; fill: none; stroke: rgb(105, 191, 150); stroke-opacity: 0.4;"><title>1</title></path><path class="link" d="M637.25,128.46153846153845C740.125,128.46153846153845 740.125,99.23076923076928 843,99.23076923076928" style="stroke-width: 5.641025641025641px; fill: none; stroke: rgb(105, 191, 150); stroke-opacity: 0.4;"><title>1</title></path><path class="link" d="M637.25,122.82051282051282C740.125,122.82051282051282 740.125,24.102564102564163 843,24.102564102564163" style="stroke-width: 5.641025641025641px; fill: none; stroke: rgb(105, 191, 150); stroke-opacity: 0.4;"><title>1</title></path><path class="link" d="M637.25,139.74358974358975C740.125,139.74358974358975 740.125,359.7435897435897 843,359.7435897435897" style="stroke-width: 5.641025641025641px; fill: none; stroke: rgb(105, 191, 150); stroke-opacity: 0.4;"><title>1</title></path></g><g><g class="node" transform="translate(0,293.46153846153845)"><rect height="321.53846153846155" width="5"><title>Adelaide57</title></rect><text x="11" y="160.76923076923077" dy=".35em" text-anchor="start" style="font-size: 11px; font-family: Arial, Helvetica; pointer-events: none;">Adelaide</text></g><g class="node" transform="translate(0,238.33333333333331)"><rect height="45.12820512820513" width="5"><title>City West8</title></rect><text x="11" y="22.564102564102566" dy=".35em" text-anchor="start" style="font-size: 11px; font-family: Arial, Helvetica; pointer-events: none;">City West</text></g><g class="node" transform="translate(0,135)"><rect height="11.282051282051283" width="5"><title>Mount Gambier2</title></rect><text x="11" y="5.641025641025641" dy=".35em" text-anchor="start" style="font-size: 11px; font-family: Arial, Helvetica; pointer-events: none;">Mount Gambier</text></g><g class="node" transform="translate(0,156.28205128205127)"><rect height="56.410256410256416" width="5"><title>Playford10</title></rect><text x="11" y="28.205128205128208" dy=".35em" text-anchor="start" style="font-size: 11px; font-family: Arial, Helvetica; pointer-events: none;">Playford</text></g><g class="node" transform="translate(0,222.69230769230768)"><rect height="5.641025641025641" width="5"><title>Stretton Centre1</title></rect><text x="11" y="2.8205128205128207" dy=".35em" text-anchor="start" style="font-size: 11px; font-family: Arial, Helvetica; pointer-events: none;">Stretton Centre</text></g><g class="node" transform="translate(843,324.35897435897436)"><rect height="22.564102564102566" width="5" style="fill: rgb(102, 102, 102);"><title>Akhilesh Harsh4</title></rect><text x="-6" y="11.282051282051283" dy=".35em" text-anchor="end" style="font-size: 11px; font-family: Arial, Helvetica; pointer-events: none;">Akhilesh Harsh</text></g><g class="node" transform="translate(843,681.7948717948717)"><rect height="5.641025641025641" width="5" style="fill: rgb(102, 102, 102);"><title>Brenton Reynolds1</title></rect><text x="-6" y="2.8205128205128207" dy=".35em" text-anchor="end" style="font-size: 11px; font-family: Arial, Helvetica; pointer-events: none;">Brenton Reynolds</text></g><g class="node" transform="translate(843,744.3589743589743)"><rect height="5.641025641025641" width="5" style="fill: rgb(102, 102, 102);"><title>Catherine Manning1</title></rect><text x="-6" y="2.8205128205128207" dy=".35em" text-anchor="end" style="font-size: 11px; font-family: Arial, Helvetica; pointer-events: none;">Catherine Manning</text></g><g class="node" transform="translate(843,666.1538461538461)"><rect height="5.641025641025641" width="5" style="fill: rgb(102, 102, 102);"><title>Catherine McIntyre1</title></rect><text x="-6" y="2.8205128205128207" dy=".35em" text-anchor="end" style="font-size: 11px; font-family: Arial, Helvetica; pointer-events: none;">Catherine McIntyre</text></g><g class="node" transform="translate(843,551.025641025641)"><rect height="11.282051282051283" width="5" style="fill: rgb(102, 102, 102);"><title>Chris Rawlinson2</title></rect><text x="-6" y="5.641025641025641" dy=".35em" text-anchor="end" style="font-size: 11px; font-family: Arial, Helvetica; pointer-events: none;">Chris Rawlinson</text></g><g class="node" transform="translate(843,172.82051282051287)"><rect height="5.641025641025641" width="5" style="fill: rgb(102, 102, 102);"><title>Christopher Hoitink1</title></rect><text x="-6" y="2.8205128205128207" dy=".35em" text-anchor="end" style="font-size: 11px; font-family: Arial, Helvetica; pointer-events: none;">Christopher Hoitink</text></g><g class="node" transform="translate(843,728.7179487179486)"><rect height="5.641025641025641" width="5" style="fill: rgb(102, 102, 102);"><title>Daryl Weinert1</title></rect><text x="-6" y="2.8205128205128207" dy=".35em" text-anchor="end" style="font-size: 11px; font-family: Arial, Helvetica; pointer-events: none;">Daryl Weinert</text></g><g class="node" transform="translate(843,69.48717948717955)"><rect height="16.923076923076923" width="5" style="fill: rgb(102, 102, 102);"><title>Hing-Wah Kwok3</title></rect><text x="-6" y="8.461538461538462" dy=".35em" text-anchor="end" style="font-size: 11px; font-family: Arial, Helvetica; pointer-events: none;">Hing-Wah Kwok</text></g><g class="node" transform="translate(843,650.5128205128204)"><rect height="5.641025641025641" width="5" style="fill: rgb(102, 102, 102);"><title>JANINE GIBSON1</title></rect><text x="-6" y="2.8205128205128207" dy=".35em" text-anchor="end" style="font-size: 11px; font-family: Arial, Helvetica; pointer-events: none;">JANINE GIBSON</text></g><g class="node" transform="translate(843,5.684341886080802e-14)"><rect height="11.282051282051283" width="5" style="fill: rgb(102, 102, 102);"><title>Jason Plunkett2</title></rect><text x="-6" y="5.641025641025641" dy=".35em" text-anchor="end" style="font-size: 11px; font-family: Arial, Helvetica; pointer-events: none;">Jason Plunkett</text></g><g class="node" transform="translate(843,400.7692307692308)"><rect height="33.84615384615385" width="5" style="fill: rgb(102, 102, 102);"><title>Leo Lai6</title></rect><text x="-6" y="16.923076923076923" dy=".35em" text-anchor="end" style="font-size: 11px; font-family: Arial, Helvetica; pointer-events: none;">Leo Lai</text></g><g class="node" transform="translate(843,42.564102564102626)"><rect height="16.923076923076923" width="5" style="fill: rgb(102, 102, 102);"><title>Madhumita Mazumdar3</title></rect><text x="-6" y="8.461538461538462" dy=".35em" text-anchor="end" style="font-size: 11px; font-family: Arial, Helvetica; pointer-events: none;">Madhumita Mazumdar</text></g><g class="node" transform="translate(843,634.8717948717948)"><rect height="5.641025641025641" width="5" style="fill: rgb(102, 102, 102);"><title>Maryann Gallloway1</title></rect><text x="-6" y="2.8205128205128207" dy=".35em" text-anchor="end" style="font-size: 11px; font-family: Arial, Helvetica; pointer-events: none;">Maryann Gallloway</text></g><g class="node" transform="translate(843,619.2307692307692)"><rect height="5.641025641025641" width="5" style="fill: rgb(102, 102, 102);"><title>Matt Gibbs1</title></rect><text x="-6" y="2.8205128205128207" dy=".35em" text-anchor="end" style="font-size: 11px; font-family: Arial, Helvetica; pointer-events: none;">Matt Gibbs</text></g><g class="node" transform="translate(843,603.5897435897435)"><rect height="5.641025641025641" width="5" style="fill: rgb(102, 102, 102);"><title>Michael Renner1</title></rect><text x="-6" y="2.8205128205128207" dy=".35em" text-anchor="end" style="font-size: 11px; font-family: Arial, Helvetica; pointer-events: none;">Michael Renner</text></g><g class="node" transform="translate(843,713.076923076923)"><rect height="5.641025641025641" width="5" style="fill: rgb(102, 102, 102);"><title>Michelle Jackson1</title></rect><text x="-6" y="2.8205128205128207" dy=".35em" text-anchor="end" style="font-size: 11px; font-family: Arial, Helvetica; pointer-events: none;">Michelle Jackson</text></g><g class="node" transform="translate(843,21.28205128205134)"><rect height="11.282051282051283" width="5" style="fill: rgb(102, 102, 102);"><title>Mike Power2</title></rect><text x="-6" y="5.641025641025641" dy=".35em" text-anchor="end" style="font-size: 11px; font-family: Arial, Helvetica; pointer-events: none;">Mike Power</text></g><g class="node" transform="translate(843,253.58974358974365)"><rect height="22.564102564102566" width="5" style="fill: rgb(102, 102, 102);"><title>mike seyfang4</title></rect><text x="-6" y="11.282051282051283" dy=".35em" text-anchor="end" style="font-size: 11px; font-family: Arial, Helvetica; pointer-events: none;">mike seyfang</text></g><g class="node" transform="translate(843,356.9230769230769)"><rect height="33.84615384615385" width="5" style="fill: rgb(102, 102, 102);"><title>Nathaniel Mason6</title></rect><text x="-6" y="16.923076923076923" dy=".35em" text-anchor="end" style="font-size: 11px; font-family: Arial, Helvetica; pointer-events: none;">Nathaniel Mason</text></g><g class="node" transform="translate(843,188.4615384615385)"><rect height="22.564102564102566" width="5" style="fill: rgb(102, 102, 102);"><title>Naveesh Sharma4</title></rect><text x="-6" y="11.282051282051283" dy=".35em" text-anchor="end" style="font-size: 11px; font-family: Arial, Helvetica; pointer-events: none;">Naveesh Sharma</text></g><g class="node" transform="translate(843,286.1538461538462)"><rect height="28.205128205128208" width="5" style="fill: rgb(102, 102, 102);"><title>Nick Brown5</title></rect><text x="-6" y="14.102564102564104" dy=".35em" text-anchor="end" style="font-size: 11px; font-family: Arial, Helvetica; pointer-events: none;">Nick Brown</text></g><g class="node" transform="translate(843,221.02564102564108)"><rect height="22.564102564102566" width="5" style="fill: rgb(102, 102, 102);"><title>Nikunj Mandlas4</title></rect><text x="-6" y="11.282051282051283" dy=".35em" text-anchor="end" style="font-size: 11px; font-family: Arial, Helvetica; pointer-events: none;">Nikunj Mandlas</text></g><g class="node" transform="translate(843,460.2564102564103)"><rect height="16.923076923076923" width="5" style="fill: rgb(102, 102, 102);"><title>Oliver Scholey3</title></rect><text x="-6" y="8.461538461538462" dy=".35em" text-anchor="end" style="font-size: 11px; font-family: Arial, Helvetica; pointer-events: none;">Oliver Scholey</text></g><g class="node" transform="translate(843,134.61538461538467)"><rect height="28.205128205128208" width="5" style="fill: rgb(102, 102, 102);"><title>Paul van der Linden5</title></rect><text x="-6" y="14.102564102564104" dy=".35em" text-anchor="end" style="font-size: 11px; font-family: Arial, Helvetica; pointer-events: none;">Paul van der Linden</text></g><g class="node" transform="translate(843,529.7435897435897)"><rect height="11.282051282051283" width="5" style="fill: rgb(102, 102, 102);"><title>Rebecca Collins2</title></rect><text x="-6" y="5.641025641025641" dy=".35em" text-anchor="end" style="font-size: 11px; font-family: Arial, Helvetica; pointer-events: none;">Rebecca Collins</text></g><g class="node" transform="translate(843,697.4358974358973)"><rect height="5.641025641025641" width="5" style="fill: rgb(102, 102, 102);"><title>Rebecca Mitchell1</title></rect><text x="-6" y="2.8205128205128207" dy=".35em" text-anchor="end" style="font-size: 11px; font-family: Arial, Helvetica; pointer-events: none;">Rebecca Mitchell</text></g><g class="node" transform="translate(843,444.61538461538464)"><rect height="5.641025641025641" width="5" style="fill: rgb(102, 102, 102);"><title>Robin Green1</title></rect><text x="-6" y="2.8205128205128207" dy=".35em" text-anchor="end" style="font-size: 11px; font-family: Arial, Helvetica; pointer-events: none;">Robin Green</text></g><g class="node" transform="translate(843,96.41025641025647)"><rect height="28.205128205128208" width="5" style="fill: rgb(102, 102, 102);"><title>Rowan Kelly5</title></rect><text x="-6" y="14.102564102564104" dy=".35em" text-anchor="end" style="font-size: 11px; font-family: Arial, Helvetica; pointer-events: none;">Rowan Kelly</text></g><g class="node" transform="translate(843,587.9487179487179)"><rect height="5.641025641025641" width="5" style="fill: rgb(102, 102, 102);"><title>Ryan Dawson1</title></rect><text x="-6" y="2.8205128205128207" dy=".35em" text-anchor="end" style="font-size: 11px; font-family: Arial, Helvetica; pointer-events: none;">Ryan Dawson</text></g><g class="node" transform="translate(843,572.3076923076923)"><rect height="5.641025641025641" width="5" style="fill: rgb(102, 102, 102);"><title>Sheree Ellis1</title></rect><text x="-6" y="2.8205128205128207" dy=".35em" text-anchor="end" style="font-size: 11px; font-family: Arial, Helvetica; pointer-events: none;">Sheree Ellis</text></g><g class="node" transform="translate(843,508.46153846153845)"><rect height="11.282051282051283" width="5" style="fill: rgb(102, 102, 102);"><title>Simon Worthington-Eyre2</title></rect><text x="-6" y="5.641025641025641" dy=".35em" text-anchor="end" style="font-size: 11px; font-family: Arial, Helvetica; pointer-events: none;">Simon Worthington-Eyre</text></g><g class="node" transform="translate(843,487.1794871794872)"><rect height="11.282051282051283" width="5" style="fill: rgb(102, 102, 102);"><title>Zara Carman2</title></rect><text x="-6" y="5.641025641025641" dy=".35em" text-anchor="end" style="font-size: 11px; font-family: Arial, Helvetica; pointer-events: none;">Zara Carman</text></g><g class="node" transform="translate(421.5,512.8205128205128)"><rect height="107.17948717948718" width="5"><title>Data19</title></rect><text x="11" y="53.58974358974359" dy=".35em" text-anchor="start" style="font-size: 11px; font-family: Arial, Helvetica; pointer-events: none;">Data</text></g><g class="node" transform="translate(421.5,156.9230769230769)"><rect height="28.205128205128208" width="5"><title>Data Science5</title></rect><text x="11" y="14.102564102564104" dy=".35em" text-anchor="start" style="font-size: 11px; font-family: Arial, Helvetica; pointer-events: none;">Data Science</text></g><g class="node" transform="translate(421.5,129.99999999999997)"><rect height="16.923076923076923" width="5"><title>Design3</title></rect><text x="11" y="8.461538461538462" dy=".35em" text-anchor="start" style="font-size: 11px; font-family: Arial, Helvetica; pointer-events: none;">Design</text></g><g class="node" transform="translate(421.5,278.46153846153845)"><rect height="50.769230769230774" width="5"><title>Policy9</title></rect><text x="11" y="25.384615384615387" dy=".35em" text-anchor="start" style="font-size: 11px; font-family: Arial, Helvetica; pointer-events: none;">Policy</text></g><g class="node" transform="translate(421.5,195.1282051282051)"><rect height="73.33333333333334" width="5"><title>Strategy13</title></rect><text x="11" y="36.66666666666667" dy=".35em" text-anchor="start" style="font-size: 11px; font-family: Arial, Helvetica; pointer-events: none;">Strategy</text></g><g class="node" transform="translate(421.5,339.2307692307692)"><rect height="163.5897435897436" width="5"><title>Technical29</title></rect><text x="11" y="81.7948717948718" dy=".35em" text-anchor="start" style="font-size: 11px; font-family: Arial, Helvetica; pointer-events: none;">Technical</text></g><g class="node" transform="translate(632.25,507.1794871794872)"><rect height="22.564102564102566" width="5"><title>Any4</title></rect><text x="-6" y="11.282051282051283" dy=".35em" text-anchor="end" style="font-size: 11px; font-family: Arial, Helvetica; pointer-events: none;">Any</text></g><g class="node" transform="translate(632.25,368.71794871794873)"><rect height="50.769230769230774" width="5"><title>Data science/stats9</title></rect><text x="-6" y="25.384615384615387" dy=".35em" text-anchor="end" style="font-size: 11px; font-family: Arial, Helvetica; pointer-events: none;">Data science/stats</text></g><g class="node" transform="translate(632.25,539.7435897435897)"><rect height="90.25641025641026" width="5"><title>Datasets16</title></rect><text x="-6" y="45.12820512820513" dy=".35em" text-anchor="end" style="font-size: 11px; font-family: Arial, Helvetica; pointer-events: none;">Datasets</text></g><g class="node" transform="translate(632.25,230.25641025641028)"><rect height="67.6923076923077" width="5"><title>presentations12</title></rect><text x="-6" y="33.84615384615385" dy=".35em" text-anchor="end" style="font-size: 11px; font-family: Arial, Helvetica; pointer-events: none;">presentations</text></g><g class="node" transform="translate(632.25,152.56410256410257)"><rect height="67.6923076923077" width="5"><title>product development12</title></rect><text x="-6" y="33.84615384615385" dy=".35em" text-anchor="end" style="font-size: 11px; font-family: Arial, Helvetica; pointer-events: none;">product development</text></g><g class="node" transform="translate(632.25,307.94871794871796)"><rect height="50.769230769230774" width="5"><title>Strategy9</title></rect><text x="-6" y="25.384615384615387" dy=".35em" text-anchor="end" style="font-size: 11px; font-family: Arial, Helvetica; pointer-events: none;">Strategy</text></g><g class="node" transform="translate(632.25,429.4871794871795)"><rect height="67.6923076923077" width="5"><title>Systems/APIs12</title></rect><text x="-6" y="33.84615384615385" dy=".35em" text-anchor="end" style="font-size: 11px; font-family: Arial, Helvetica; pointer-events: none;">Systems/APIs</text></g><g class="node" transform="translate(632.25,120)"><rect height="22.564102564102566" width="5"><title>Technical4</title></rect><text x="-6" y="11.282051282051283" dy=".35em" text-anchor="end" style="font-size: 11px; font-family: Arial, Helvetica; pointer-events: none;">Technical</text></g><g class="node" transform="translate(210.75,150)"><rect height="163.5897435897436" width="5"><title>Coach29</title></rect><text x="11" y="81.7948717948718" dy=".35em" text-anchor="start" style="font-size: 11px; font-family: Arial, Helvetica; pointer-events: none;">Coach</text></g><g class="node" transform="translate(210.75,323.5897435897436)"><rect height="276.4102564102564" width="5"><title>Mentor49</title></rect><text x="11" y="138.2051282051282" dy=".35em" text-anchor="start" style="font-size: 11px; font-family: Arial, Helvetica; pointer-events: none;">Mentor</text></g></g></g></svg>
